%TF.GenerationSoftware,KiCad,Pcbnew,9.0.3*%
%TF.CreationDate,2025-08-01T16:02:22+05:00*%
%TF.ProjectId,bottom,626f7474-6f6d-42e6-9b69-6361645f7063,rev?*%
%TF.SameCoordinates,Original*%
%TF.FileFunction,Copper,L2,Bot*%
%TF.FilePolarity,Positive*%
%FSLAX46Y46*%
G04 Gerber Fmt 4.6, Leading zero omitted, Abs format (unit mm)*
G04 Created by KiCad (PCBNEW 9.0.3) date 2025-08-01 16:02:22*
%MOMM*%
%LPD*%
G01*
G04 APERTURE LIST*
%TA.AperFunction,ComponentPad*%
%ADD10C,3.800000*%
%TD*%
G04 APERTURE END LIST*
D10*
%TO.P,H10,1,1*%
%TO.N,GND*%
X373482500Y-176499963D03*
%TD*%
%TO.P,H6,1,1*%
%TO.N,GND*%
X41400000Y-85344963D03*
%TD*%
%TO.P,H9,1,1*%
%TO.N,GND*%
X373482500Y-85344963D03*
%TD*%
%TO.P,H7,1,1*%
%TO.N,GND*%
X42400000Y-175499963D03*
%TD*%
%TO.P,H8,1,1*%
%TO.N,GND*%
X207441300Y-140474963D03*
%TD*%
%TA.AperFunction,Conductor*%
%TO.N,GND*%
G36*
X374487018Y-82845816D02*
G01*
X374687161Y-82860130D01*
X374704663Y-82862647D01*
X374896397Y-82904355D01*
X374913355Y-82909334D01*
X375097209Y-82977909D01*
X375113301Y-82985259D01*
X375285504Y-83079288D01*
X375300384Y-83088849D01*
X375457467Y-83206441D01*
X375470837Y-83218027D01*
X375609572Y-83356762D01*
X375621158Y-83370132D01*
X375738746Y-83527210D01*
X375748311Y-83542095D01*
X375842340Y-83714298D01*
X375849690Y-83730390D01*
X375918262Y-83914236D01*
X375923246Y-83931212D01*
X375964951Y-84122931D01*
X375967469Y-84140442D01*
X375981784Y-84340580D01*
X375982100Y-84349427D01*
X375982100Y-177495572D01*
X375981784Y-177504419D01*
X375967469Y-177704557D01*
X375964951Y-177722068D01*
X375923246Y-177913787D01*
X375918262Y-177930763D01*
X375849690Y-178114609D01*
X375842340Y-178130701D01*
X375748311Y-178302904D01*
X375738746Y-178317789D01*
X375621158Y-178474867D01*
X375609572Y-178488237D01*
X375470837Y-178626972D01*
X375457467Y-178638558D01*
X375300389Y-178756146D01*
X375285504Y-178765711D01*
X375113301Y-178859740D01*
X375097209Y-178867090D01*
X374913363Y-178935662D01*
X374896387Y-178940646D01*
X374704668Y-178982351D01*
X374687157Y-178984869D01*
X374506379Y-178997799D01*
X374487017Y-178999184D01*
X374478172Y-178999500D01*
X303605477Y-178999500D01*
X303431279Y-179011681D01*
X303258352Y-179035985D01*
X303258315Y-179035991D01*
X303243741Y-179039089D01*
X303243734Y-179039091D01*
X303237378Y-179040442D01*
X303237377Y-179040442D01*
X282943112Y-183354121D01*
X213797968Y-198051374D01*
X213791582Y-198052558D01*
X213646148Y-198075589D01*
X213633241Y-198076945D01*
X213489478Y-198084477D01*
X213476501Y-198084477D01*
X213332738Y-198076943D01*
X213319831Y-198075587D01*
X213281830Y-198069569D01*
X213174279Y-198052536D01*
X213167920Y-198051357D01*
X213167917Y-198051357D01*
X213142416Y-198045936D01*
X213117945Y-198040735D01*
X213106763Y-198038359D01*
X213106762Y-198038359D01*
X123727820Y-179040441D01*
X123721492Y-179039096D01*
X123721445Y-179039088D01*
X123706874Y-179035991D01*
X123706850Y-179035987D01*
X123533923Y-179011682D01*
X123359724Y-178999500D01*
X123359712Y-178999500D01*
X123338285Y-178999500D01*
X40404528Y-178999500D01*
X40395682Y-178999184D01*
X40373722Y-178997613D01*
X40195542Y-178984869D01*
X40178031Y-178982351D01*
X39986312Y-178940646D01*
X39969336Y-178935662D01*
X39785490Y-178867090D01*
X39769398Y-178859740D01*
X39597195Y-178765711D01*
X39582310Y-178756146D01*
X39425232Y-178638558D01*
X39411862Y-178626972D01*
X39273127Y-178488237D01*
X39261541Y-178474867D01*
X39143949Y-178317784D01*
X39134388Y-178302904D01*
X39040359Y-178130701D01*
X39033009Y-178114609D01*
X38972191Y-177951551D01*
X38964434Y-177930755D01*
X38959455Y-177913797D01*
X38917747Y-177722063D01*
X38915230Y-177704556D01*
X38900916Y-177504418D01*
X38900600Y-177495572D01*
X38900600Y-84349427D01*
X38900916Y-84340581D01*
X38915230Y-84140443D01*
X38915231Y-84140442D01*
X38915230Y-84140436D01*
X38917746Y-84122938D01*
X38959456Y-83931199D01*
X38964433Y-83914248D01*
X39033011Y-83730385D01*
X39040359Y-83714298D01*
X39102915Y-83599734D01*
X39134391Y-83542089D01*
X39143945Y-83527221D01*
X39261548Y-83370123D01*
X39273120Y-83356769D01*
X39411869Y-83218020D01*
X39425223Y-83206448D01*
X39582321Y-83088845D01*
X39597189Y-83079291D01*
X39769398Y-82985258D01*
X39785485Y-82977911D01*
X39969348Y-82909333D01*
X39986299Y-82904356D01*
X40178038Y-82862646D01*
X40195536Y-82860130D01*
X40395682Y-82845816D01*
X40404528Y-82845500D01*
X40465992Y-82845500D01*
X374416708Y-82845500D01*
X374478172Y-82845500D01*
X374487018Y-82845816D01*
G37*
%TD.AperFunction*%
%TD*%
M02*
