%TF.GenerationSoftware,KiCad,Pcbnew,9.0.3*%
%TF.CreationDate,2025-08-01T16:02:48+05:00*%
%TF.ProjectId,Ayumu62,4179756d-7536-4322-9e6b-696361645f70,rev?*%
%TF.SameCoordinates,Original*%
%TF.FileFunction,Paste,Bot*%
%TF.FilePolarity,Positive*%
%FSLAX46Y46*%
G04 Gerber Fmt 4.6, Leading zero omitted, Abs format (unit mm)*
G04 Created by KiCad (PCBNEW 9.0.3) date 2025-08-01 16:02:48*
%MOMM*%
%LPD*%
G01*
G04 APERTURE LIST*
G04 Aperture macros list*
%AMRoundRect*
0 Rectangle with rounded corners*
0 $1 Rounding radius*
0 $2 $3 $4 $5 $6 $7 $8 $9 X,Y pos of 4 corners*
0 Add a 4 corners polygon primitive as box body*
4,1,4,$2,$3,$4,$5,$6,$7,$8,$9,$2,$3,0*
0 Add four circle primitives for the rounded corners*
1,1,$1+$1,$2,$3*
1,1,$1+$1,$4,$5*
1,1,$1+$1,$6,$7*
1,1,$1+$1,$8,$9*
0 Add four rect primitives between the rounded corners*
20,1,$1+$1,$2,$3,$4,$5,0*
20,1,$1+$1,$4,$5,$6,$7,0*
20,1,$1+$1,$6,$7,$8,$9,0*
20,1,$1+$1,$8,$9,$2,$3,0*%
G04 Aperture macros list end*
%ADD10RoundRect,0.250000X-0.794690X-1.191257X1.210513X-0.765038X0.794690X1.191257X-1.210513X0.765038X0*%
%ADD11RoundRect,0.250000X-1.025000X-1.000000X1.025000X-1.000000X1.025000X1.000000X-1.025000X1.000000X0*%
%ADD12RoundRect,0.250000X-1.210513X-0.765038X0.794690X-1.191257X1.210513X0.765038X-0.794690X1.191257X0*%
%ADD13RoundRect,0.112500X-0.112500X0.187500X-0.112500X-0.187500X0.112500X-0.187500X0.112500X0.187500X0*%
%ADD14RoundRect,0.112500X-0.149025X0.160013X-0.071058X-0.206793X0.149025X-0.160013X0.071058X0.206793X0*%
%ADD15RoundRect,0.112500X-0.071058X0.206793X-0.149025X-0.160013X0.071058X-0.206793X0.149025X0.160013X0*%
G04 APERTURE END LIST*
D10*
%TO.C,SW61*%
X246886131Y-174650759D03*
X259002547Y-169478590D03*
%TD*%
D11*
%TO.C,SW5*%
X326132500Y-86905600D03*
X339059500Y-84365600D03*
%TD*%
D12*
%TO.C,SW38*%
X140040920Y-145103251D03*
X153213530Y-145306430D03*
%TD*%
D10*
%TO.C,SW46*%
X248279431Y-96452159D03*
X260395847Y-91279990D03*
%TD*%
%TO.C,SW48*%
X285546931Y-88530759D03*
X297663347Y-83358590D03*
%TD*%
%TO.C,SW56*%
X286946531Y-127184459D03*
X299062947Y-122012290D03*
%TD*%
D12*
%TO.C,SW26*%
X146333020Y-88013851D03*
X159505630Y-88217030D03*
%TD*%
%TO.C,SW42*%
X166825820Y-170272151D03*
X179998430Y-170475330D03*
%TD*%
%TO.C,SW31*%
X151689120Y-108627951D03*
X164861730Y-108831130D03*
%TD*%
D11*
%TO.C,SW7*%
X301367500Y-105003100D03*
X314294500Y-102463100D03*
%TD*%
D10*
%TO.C,SW58*%
X245254631Y-155521959D03*
X257371047Y-150349790D03*
%TD*%
D12*
%TO.C,SW39*%
X158674620Y-149063951D03*
X171847230Y-149267130D03*
%TD*%
D11*
%TO.C,SW17*%
X359946300Y-125005600D03*
X372873300Y-122465600D03*
%TD*%
D10*
%TO.C,SW51*%
X261557031Y-113105559D03*
X273673447Y-107933390D03*
%TD*%
D11*
%TO.C,SW12*%
X363280000Y-105955600D03*
X376207000Y-103415600D03*
%TD*%
D10*
%TO.C,SW47*%
X266913231Y-92491459D03*
X279029647Y-87319290D03*
%TD*%
D12*
%TO.C,SW40*%
X177308320Y-153024651D03*
X190480930Y-153227830D03*
%TD*%
D11*
%TO.C,SW24*%
X80387500Y-163105600D03*
X93314500Y-160565600D03*
%TD*%
D10*
%TO.C,SW57*%
X226620931Y-159482659D03*
X238737347Y-154310490D03*
%TD*%
%TO.C,SW52*%
X280190731Y-109144859D03*
X292307147Y-103972690D03*
%TD*%
D11*
%TO.C,SW3*%
X87055000Y-86905600D03*
X99982000Y-84365600D03*
%TD*%
D12*
%TO.C,SW30*%
X133055420Y-104667251D03*
X146228030Y-104870430D03*
%TD*%
D10*
%TO.C,SW45*%
X229645731Y-100412959D03*
X241762147Y-95240790D03*
%TD*%
D11*
%TO.C,SW20*%
X304225000Y-144055600D03*
X317152000Y-141515600D03*
%TD*%
D10*
%TO.C,SW55*%
X268312831Y-131145159D03*
X280429247Y-125972990D03*
%TD*%
D12*
%TO.C,SW37*%
X190585920Y-136371351D03*
X203758530Y-136574530D03*
%TD*%
D10*
%TO.C,SW50*%
X242923331Y-117066259D03*
X255039747Y-111894090D03*
%TD*%
D12*
%TO.C,SW34*%
X134684820Y-124489151D03*
X147857430Y-124692330D03*
%TD*%
D11*
%TO.C,SW10*%
X320417500Y-105955600D03*
X333344500Y-103415600D03*
%TD*%
%TO.C,SW8*%
X88007500Y-105955600D03*
X100934500Y-103415600D03*
%TD*%
%TO.C,SW13*%
X86578800Y-125005600D03*
X99505800Y-122465600D03*
%TD*%
%TO.C,SW1*%
X125155000Y-85000600D03*
X138082000Y-82460600D03*
%TD*%
%TO.C,SW21*%
X323275000Y-144055600D03*
X336202000Y-141515600D03*
%TD*%
D12*
%TO.C,SW29*%
X202234120Y-99896051D03*
X215406730Y-100099230D03*
%TD*%
D11*
%TO.C,SW11*%
X339467500Y-105955600D03*
X352394500Y-103415600D03*
%TD*%
D12*
%TO.C,SW44*%
X134018820Y-164272551D03*
X147191430Y-164475730D03*
%TD*%
D11*
%TO.C,SW2*%
X307082500Y-85000600D03*
X320009500Y-82460600D03*
%TD*%
%TO.C,SW14*%
X112772500Y-125005600D03*
X125699500Y-122465600D03*
%TD*%
%TO.C,SW9*%
X111820000Y-105955600D03*
X124747000Y-103415600D03*
%TD*%
D10*
%TO.C,SW60*%
X282522131Y-147600459D03*
X294638547Y-142428290D03*
%TD*%
D12*
%TO.C,SW27*%
X164966720Y-91974651D03*
X178139330Y-92177830D03*
%TD*%
D10*
%TO.C,SW62*%
X286680831Y-167165859D03*
X298797247Y-161993690D03*
%TD*%
%TO.C,SW49*%
X224289631Y-121026959D03*
X236406047Y-115854790D03*
%TD*%
D12*
%TO.C,SW28*%
X183600420Y-95935351D03*
X196773030Y-96138530D03*
%TD*%
%TO.C,SW33*%
X188956520Y-116549351D03*
X202129130Y-116752530D03*
%TD*%
%TO.C,SW32*%
X170322820Y-112588651D03*
X183495430Y-112791830D03*
%TD*%
D11*
%TO.C,SW19*%
X118487500Y-144055600D03*
X131414500Y-141515600D03*
%TD*%
%TO.C,SW22*%
X349468800Y-144055600D03*
X362395800Y-141515600D03*
%TD*%
D12*
%TO.C,SW41*%
X195942120Y-156985351D03*
X209114730Y-157188530D03*
%TD*%
D11*
%TO.C,SW4*%
X106105000Y-86905600D03*
X119032000Y-84365600D03*
%TD*%
%TO.C,SW23*%
X375662500Y-144055600D03*
X388589500Y-141515600D03*
%TD*%
D12*
%TO.C,SW36*%
X171952220Y-132410651D03*
X185124830Y-132613830D03*
%TD*%
%TO.C,SW35*%
X153318520Y-128449851D03*
X166491130Y-128653030D03*
%TD*%
D11*
%TO.C,SW6*%
X354707500Y-86905600D03*
X367634500Y-84365600D03*
%TD*%
D10*
%TO.C,SW54*%
X249679131Y-135105859D03*
X261795547Y-129933690D03*
%TD*%
D11*
%TO.C,SW16*%
X328990000Y-125005600D03*
X341917000Y-122465600D03*
%TD*%
D12*
%TO.C,SW43*%
X197105620Y-176708351D03*
X210278230Y-176911530D03*
%TD*%
D11*
%TO.C,SW25*%
X367090000Y-163105600D03*
X380017000Y-160565600D03*
%TD*%
%TO.C,SW15*%
X309940000Y-125005600D03*
X322867000Y-122465600D03*
%TD*%
D10*
%TO.C,SW59*%
X263888331Y-151561159D03*
X276004747Y-146388990D03*
%TD*%
D11*
%TO.C,SW18*%
X87531300Y-144055600D03*
X100458300Y-141515600D03*
%TD*%
D10*
%TO.C,SW53*%
X231045431Y-139066559D03*
X243161847Y-133894390D03*
%TD*%
D13*
%TO.C,D16*%
X341155000Y-129525600D03*
X341155000Y-131625600D03*
%TD*%
%TO.C,D3*%
X99220000Y-91425600D03*
X99220000Y-93525600D03*
%TD*%
D14*
%TO.C,D49*%
X237128593Y-122918945D03*
X237565207Y-124973055D03*
%TD*%
D15*
%TO.C,D31*%
X162648507Y-115578445D03*
X162211893Y-117632555D03*
%TD*%
%TO.C,D33*%
X199915907Y-123499845D03*
X199479293Y-125553955D03*
%TD*%
D13*
%TO.C,D15*%
X322105000Y-129525600D03*
X322105000Y-131625600D03*
%TD*%
%TO.C,D5*%
X338297500Y-91425600D03*
X338297500Y-93525600D03*
%TD*%
D15*
%TO.C,D41*%
X206901507Y-163935845D03*
X206464893Y-165989955D03*
%TD*%
D13*
%TO.C,D1*%
X137320000Y-89520600D03*
X137320000Y-91620600D03*
%TD*%
D15*
%TO.C,D38*%
X151000307Y-152053745D03*
X150563693Y-154107855D03*
%TD*%
D13*
%TO.C,D6*%
X366872500Y-91425600D03*
X366872500Y-93525600D03*
%TD*%
D14*
%TO.C,D54*%
X262517993Y-136997845D03*
X262954607Y-139051955D03*
%TD*%
%TO.C,D61*%
X259725093Y-176542645D03*
X260161707Y-178596755D03*
%TD*%
D15*
%TO.C,D27*%
X175926107Y-98925045D03*
X175489493Y-100979155D03*
%TD*%
D13*
%TO.C,D14*%
X124937500Y-129525600D03*
X124937500Y-131625600D03*
%TD*%
%TO.C,D8*%
X100172500Y-110475600D03*
X100172500Y-112575600D03*
%TD*%
D15*
%TO.C,D43*%
X208065007Y-183658745D03*
X207628393Y-185712855D03*
%TD*%
D13*
%TO.C,D24*%
X92552500Y-167625600D03*
X92552500Y-169725600D03*
%TD*%
%TO.C,D19*%
X130652500Y-148575600D03*
X130652500Y-150675600D03*
%TD*%
D14*
%TO.C,D50*%
X255762293Y-118958245D03*
X256198907Y-121012355D03*
%TD*%
D15*
%TO.C,D30*%
X144014807Y-111617745D03*
X143578193Y-113671855D03*
%TD*%
%TO.C,D40*%
X188267807Y-159975145D03*
X187831193Y-162029255D03*
%TD*%
D13*
%TO.C,D12*%
X375445000Y-110475600D03*
X375445000Y-112575600D03*
%TD*%
D14*
%TO.C,D55*%
X281151793Y-133037145D03*
X281588407Y-135091255D03*
%TD*%
D15*
%TO.C,D34*%
X145644207Y-131439645D03*
X145207593Y-133493755D03*
%TD*%
%TO.C,D32*%
X181282207Y-119539145D03*
X180845593Y-121593255D03*
%TD*%
D13*
%TO.C,D4*%
X118270000Y-91425600D03*
X118270000Y-93525600D03*
%TD*%
D14*
%TO.C,D51*%
X274395993Y-114997545D03*
X274832607Y-117051655D03*
%TD*%
D13*
%TO.C,D23*%
X387827500Y-148575600D03*
X387827500Y-150675600D03*
%TD*%
%TO.C,D25*%
X379255000Y-167625600D03*
X379255000Y-169725600D03*
%TD*%
%TO.C,D20*%
X316390000Y-148575600D03*
X316390000Y-150675600D03*
%TD*%
%TO.C,D18*%
X99696300Y-148575600D03*
X99696300Y-150675600D03*
%TD*%
D15*
%TO.C,D28*%
X194559807Y-102885845D03*
X194123193Y-104939955D03*
%TD*%
D14*
%TO.C,D62*%
X299519793Y-169057845D03*
X299956407Y-171111955D03*
%TD*%
D15*
%TO.C,D36*%
X182911607Y-139361045D03*
X182474993Y-141415155D03*
%TD*%
D13*
%TO.C,D13*%
X98743800Y-129525600D03*
X98743800Y-131625600D03*
%TD*%
D14*
%TO.C,D45*%
X242484693Y-102304945D03*
X242921307Y-104359055D03*
%TD*%
D13*
%TO.C,D21*%
X335440000Y-148575600D03*
X335440000Y-150675600D03*
%TD*%
D14*
%TO.C,D53*%
X243884293Y-140958545D03*
X244320907Y-143012655D03*
%TD*%
%TO.C,D48*%
X298385793Y-90422745D03*
X298822407Y-92476855D03*
%TD*%
D13*
%TO.C,D9*%
X123985000Y-110475600D03*
X123985000Y-112575600D03*
%TD*%
D14*
%TO.C,D57*%
X239459893Y-161374645D03*
X239896507Y-163428755D03*
%TD*%
%TO.C,D56*%
X299785493Y-129076445D03*
X300222107Y-131130555D03*
%TD*%
D15*
%TO.C,D44*%
X144978207Y-171223045D03*
X144541593Y-173277155D03*
%TD*%
D13*
%TO.C,D11*%
X351632500Y-110475600D03*
X351632500Y-112575600D03*
%TD*%
%TO.C,D17*%
X372111300Y-129525600D03*
X372111300Y-131625600D03*
%TD*%
%TO.C,D2*%
X319247500Y-89520600D03*
X319247500Y-91620600D03*
%TD*%
D15*
%TO.C,D37*%
X201545307Y-143321845D03*
X201108693Y-145375955D03*
%TD*%
%TO.C,D39*%
X169634007Y-156014445D03*
X169197393Y-158068555D03*
%TD*%
%TO.C,D35*%
X164277907Y-135400345D03*
X163841293Y-137454455D03*
%TD*%
D14*
%TO.C,D58*%
X258093593Y-157413845D03*
X258530207Y-159467955D03*
%TD*%
D13*
%TO.C,D22*%
X361633800Y-148575600D03*
X361633800Y-150675600D03*
%TD*%
D14*
%TO.C,D52*%
X293029693Y-111036845D03*
X293466307Y-113090955D03*
%TD*%
%TO.C,D46*%
X261118393Y-98344145D03*
X261555007Y-100398255D03*
%TD*%
D15*
%TO.C,D29*%
X213193507Y-106846545D03*
X212756893Y-108900655D03*
%TD*%
D13*
%TO.C,D10*%
X332582500Y-110475600D03*
X332582500Y-112575600D03*
%TD*%
%TO.C,D7*%
X313532500Y-109523100D03*
X313532500Y-111623100D03*
%TD*%
D14*
%TO.C,D47*%
X279752093Y-94383445D03*
X280188707Y-96437555D03*
%TD*%
D15*
%TO.C,D42*%
X177785207Y-177222645D03*
X177348593Y-179276755D03*
%TD*%
D14*
%TO.C,D59*%
X276727293Y-153453145D03*
X277163907Y-155507255D03*
%TD*%
D15*
%TO.C,D26*%
X157292407Y-94964345D03*
X156855793Y-97018455D03*
%TD*%
D14*
%TO.C,D60*%
X295360993Y-149492445D03*
X295797607Y-151546555D03*
%TD*%
M02*
