%TF.GenerationSoftware,KiCad,Pcbnew,9.0.3*%
%TF.CreationDate,2025-08-01T16:02:48+05:00*%
%TF.ProjectId,Ayumu62,4179756d-7536-4322-9e6b-696361645f70,rev?*%
%TF.SameCoordinates,Original*%
%TF.FileFunction,Soldermask,Top*%
%TF.FilePolarity,Negative*%
%FSLAX46Y46*%
G04 Gerber Fmt 4.6, Leading zero omitted, Abs format (unit mm)*
G04 Created by KiCad (PCBNEW 9.0.3) date 2025-08-01 16:02:48*
%MOMM*%
%LPD*%
G01*
G04 APERTURE LIST*
G04 Aperture macros list*
%AMRoundRect*
0 Rectangle with rounded corners*
0 $1 Rounding radius*
0 $2 $3 $4 $5 $6 $7 $8 $9 X,Y pos of 4 corners*
0 Add a 4 corners polygon primitive as box body*
4,1,4,$2,$3,$4,$5,$6,$7,$8,$9,$2,$3,0*
0 Add four circle primitives for the rounded corners*
1,1,$1+$1,$2,$3*
1,1,$1+$1,$4,$5*
1,1,$1+$1,$6,$7*
1,1,$1+$1,$8,$9*
0 Add four rect primitives between the rounded corners*
20,1,$1+$1,$2,$3,$4,$5,0*
20,1,$1+$1,$4,$5,$6,$7,0*
20,1,$1+$1,$6,$7,$8,$9,0*
20,1,$1+$1,$8,$9,$2,$3,0*%
%AMFreePoly0*
4,1,37,0.603843,0.796157,0.639018,0.796157,0.711114,0.766294,0.766294,0.711114,0.796157,0.639018,0.796157,0.603843,0.800000,0.600000,0.800000,-0.600000,0.796157,-0.603843,0.796157,-0.639018,0.766294,-0.711114,0.711114,-0.766294,0.639018,-0.796157,0.603843,-0.796157,0.600000,-0.800000,0.000000,-0.800000,0.000000,-0.796148,-0.078414,-0.796148,-0.232228,-0.765552,-0.377117,-0.705537,
-0.507515,-0.618408,-0.618408,-0.507515,-0.705537,-0.377117,-0.765552,-0.232228,-0.796148,-0.078414,-0.796148,0.078414,-0.765552,0.232228,-0.705537,0.377117,-0.618408,0.507515,-0.507515,0.618408,-0.377117,0.705537,-0.232228,0.765552,-0.078414,0.796148,0.000000,0.796148,0.000000,0.800000,0.600000,0.800000,0.603843,0.796157,0.603843,0.796157,$1*%
%AMFreePoly1*
4,1,37,0.000000,0.796148,0.078414,0.796148,0.232228,0.765552,0.377117,0.705537,0.507515,0.618408,0.618408,0.507515,0.705537,0.377117,0.765552,0.232228,0.796148,0.078414,0.796148,-0.078414,0.765552,-0.232228,0.705537,-0.377117,0.618408,-0.507515,0.507515,-0.618408,0.377117,-0.705537,0.232228,-0.765552,0.078414,-0.796148,0.000000,-0.796148,0.000000,-0.800000,-0.600000,-0.800000,
-0.603843,-0.796157,-0.639018,-0.796157,-0.711114,-0.766294,-0.766294,-0.711114,-0.796157,-0.639018,-0.796157,-0.603843,-0.800000,-0.600000,-0.800000,0.600000,-0.796157,0.603843,-0.796157,0.639018,-0.766294,0.711114,-0.711114,0.766294,-0.639018,0.796157,-0.603843,0.796157,-0.600000,0.800000,0.000000,0.800000,0.000000,0.796148,0.000000,0.796148,$1*%
G04 Aperture macros list end*
%ADD10C,1.750000*%
%ADD11C,4.000000*%
%ADD12C,3.600000*%
%ADD13C,3.048000*%
%ADD14C,3.987800*%
%ADD15C,3.800000*%
%ADD16C,2.200000*%
%ADD17C,1.850000*%
%ADD18RoundRect,0.200000X0.600000X0.600000X-0.600000X0.600000X-0.600000X-0.600000X0.600000X-0.600000X0*%
%ADD19C,1.600000*%
%ADD20FreePoly0,180.000000*%
%ADD21FreePoly1,180.000000*%
G04 APERTURE END LIST*
D10*
%TO.C,SW61*%
X249375410Y-176718391D03*
D11*
X254344400Y-175662200D03*
D10*
X259313390Y-174606009D03*
D12*
X250089562Y-173969849D03*
X255772704Y-170165114D03*
%TD*%
D10*
%TO.C,SW5*%
X328137500Y-89445600D03*
D11*
X333217500Y-89445600D03*
D10*
X338297500Y-89445600D03*
D12*
X329407500Y-86905600D03*
X335757500Y-84365600D03*
%TD*%
D10*
%TO.C,SW38*%
X141474010Y-148004609D03*
D11*
X146443000Y-149060800D03*
D10*
X151411990Y-150116991D03*
D12*
X143244353Y-145784163D03*
X149983686Y-144619906D03*
%TD*%
D10*
%TO.C,SW46*%
X250768710Y-98519791D03*
D11*
X255737700Y-97463600D03*
D10*
X260706690Y-96407409D03*
D12*
X251482862Y-95771249D03*
X257166004Y-91966514D03*
%TD*%
D10*
%TO.C,SW48*%
X288036210Y-90598391D03*
D11*
X293005200Y-89542200D03*
D10*
X297974190Y-88486009D03*
D12*
X288750362Y-87849849D03*
X294433504Y-84045114D03*
%TD*%
D13*
%TO.C,H1*%
X183452763Y-183544111D03*
D14*
X186615100Y-168666486D03*
D13*
X160098511Y-178580011D03*
D14*
X163260848Y-163702386D03*
%TD*%
D10*
%TO.C,SW56*%
X289435810Y-129252091D03*
D11*
X294404800Y-128195900D03*
D10*
X299373790Y-127139709D03*
D12*
X290149962Y-126503549D03*
X295833104Y-122698814D03*
%TD*%
D10*
%TO.C,SW26*%
X147766110Y-90915209D03*
D11*
X152735100Y-91971400D03*
D10*
X157704090Y-93027591D03*
D12*
X149536453Y-88694763D03*
X156275786Y-87530506D03*
%TD*%
D15*
%TO.C,H7*%
X58190000Y-171170600D03*
%TD*%
D10*
%TO.C,SW42*%
X168258910Y-173173509D03*
D11*
X173227900Y-174229700D03*
D10*
X178196890Y-175285891D03*
D12*
X170029253Y-170953063D03*
X176768586Y-169788806D03*
%TD*%
D10*
%TO.C,SW31*%
X153122210Y-111529309D03*
D11*
X158091200Y-112585500D03*
D10*
X163060190Y-113641691D03*
D12*
X154892553Y-109308863D03*
X161631886Y-108144606D03*
%TD*%
D15*
%TO.C,H8*%
X223231300Y-136145600D03*
%TD*%
D10*
%TO.C,SW7*%
X303372500Y-107543100D03*
D11*
X308452500Y-107543100D03*
D10*
X313532500Y-107543100D03*
D12*
X304642500Y-105003100D03*
X310992500Y-102463100D03*
%TD*%
D10*
%TO.C,SW58*%
X247743910Y-157589591D03*
D11*
X252712900Y-156533400D03*
D10*
X257681890Y-155477209D03*
D12*
X248458062Y-154841049D03*
X254141204Y-151036314D03*
%TD*%
D10*
%TO.C,SW39*%
X160107710Y-151965309D03*
D11*
X165076700Y-153021500D03*
D10*
X170045690Y-154077691D03*
D12*
X161878053Y-149744863D03*
X168617386Y-148580606D03*
%TD*%
D10*
%TO.C,SW17*%
X361951300Y-127545600D03*
D11*
X367031300Y-127545600D03*
D10*
X372111300Y-127545600D03*
D12*
X363221300Y-125005600D03*
X369571300Y-122465600D03*
%TD*%
D10*
%TO.C,SW51*%
X264046310Y-115173191D03*
D11*
X269015300Y-114117000D03*
D10*
X273984290Y-113060809D03*
D12*
X264760462Y-112424649D03*
X270443604Y-108619914D03*
%TD*%
D10*
%TO.C,SW12*%
X365285000Y-108495600D03*
D11*
X370365000Y-108495600D03*
D10*
X375445000Y-108495600D03*
D12*
X366555000Y-105955600D03*
X372905000Y-103415600D03*
%TD*%
D10*
%TO.C,SW47*%
X269402510Y-94559091D03*
D11*
X274371500Y-93502900D03*
D10*
X279340490Y-92446709D03*
D12*
X270116662Y-91810549D03*
X275799804Y-88005814D03*
%TD*%
D10*
%TO.C,SW40*%
X178741410Y-155926009D03*
D11*
X183710400Y-156982200D03*
D10*
X188679390Y-158038391D03*
D12*
X180511753Y-153705563D03*
X187251086Y-152541306D03*
%TD*%
D10*
%TO.C,SW24*%
X82392500Y-165645600D03*
D11*
X87472500Y-165645600D03*
D10*
X92552500Y-165645600D03*
D12*
X83662500Y-163105600D03*
X90012500Y-160565600D03*
%TD*%
D10*
%TO.C,SW57*%
X229110210Y-161550291D03*
D11*
X234079200Y-160494100D03*
D10*
X239048190Y-159437909D03*
D12*
X229824362Y-158801749D03*
X235507504Y-154997014D03*
%TD*%
D10*
%TO.C,SW52*%
X282680010Y-111212491D03*
D11*
X287649000Y-110156300D03*
D10*
X292617990Y-109100109D03*
D12*
X283394162Y-108463949D03*
X289077304Y-104659214D03*
%TD*%
D10*
%TO.C,SW3*%
X89060000Y-89445600D03*
D11*
X94140000Y-89445600D03*
D10*
X99220000Y-89445600D03*
D12*
X90330000Y-86905600D03*
X96680000Y-84365600D03*
%TD*%
D13*
%TO.C,H3*%
X106554300Y-153580600D03*
D14*
X106554300Y-138370600D03*
D13*
X82678300Y-153580600D03*
D14*
X82678300Y-138370600D03*
%TD*%
D13*
%TO.C,H2*%
X267473789Y-180012511D03*
D14*
X264311452Y-165134886D03*
D13*
X244119537Y-184976611D03*
D14*
X240957200Y-170098986D03*
%TD*%
D10*
%TO.C,SW30*%
X134488510Y-107568609D03*
D11*
X139457500Y-108624800D03*
D10*
X144426490Y-109680991D03*
D12*
X136258853Y-105348163D03*
X142998186Y-104183906D03*
%TD*%
D10*
%TO.C,SW45*%
X232135010Y-102480591D03*
D11*
X237104000Y-101424400D03*
D10*
X242072990Y-100368209D03*
D12*
X232849162Y-99732049D03*
X238532304Y-95927314D03*
%TD*%
D10*
%TO.C,SW20*%
X306230000Y-146595600D03*
D11*
X311310000Y-146595600D03*
D10*
X316390000Y-146595600D03*
D12*
X307500000Y-144055600D03*
X313850000Y-141515600D03*
%TD*%
D10*
%TO.C,SW55*%
X270802110Y-133212791D03*
D11*
X275771100Y-132156600D03*
D10*
X280740090Y-131100409D03*
D12*
X271516262Y-130464249D03*
X277199404Y-126659514D03*
%TD*%
D10*
%TO.C,SW37*%
X192019010Y-139272709D03*
D11*
X196988000Y-140328900D03*
D10*
X201956990Y-141385091D03*
D12*
X193789353Y-137052263D03*
X200528686Y-135888006D03*
%TD*%
D10*
%TO.C,SW50*%
X245412610Y-119133891D03*
D11*
X250381600Y-118077700D03*
D10*
X255350590Y-117021509D03*
D12*
X246126762Y-116385349D03*
X251809904Y-112580614D03*
%TD*%
D15*
%TO.C,H6*%
X57190000Y-81015600D03*
%TD*%
D10*
%TO.C,SW34*%
X136117910Y-127390509D03*
D11*
X141086900Y-128446700D03*
D10*
X146055890Y-129502891D03*
D12*
X137888253Y-125170063D03*
X144627586Y-124005806D03*
%TD*%
D10*
%TO.C,SW10*%
X322422500Y-108495600D03*
D11*
X327502500Y-108495600D03*
D10*
X332582500Y-108495600D03*
D12*
X323692500Y-105955600D03*
X330042500Y-103415600D03*
%TD*%
D10*
%TO.C,SW8*%
X90012500Y-108495600D03*
D11*
X95092500Y-108495600D03*
D10*
X100172500Y-108495600D03*
D12*
X91282500Y-105955600D03*
X97632500Y-103415600D03*
%TD*%
D10*
%TO.C,SW13*%
X88583800Y-127545600D03*
D11*
X93663800Y-127545600D03*
D10*
X98743800Y-127545600D03*
D12*
X89853800Y-125005600D03*
X96203800Y-122465600D03*
%TD*%
D10*
%TO.C,SW1*%
X127160000Y-87540600D03*
D11*
X132240000Y-87540600D03*
D10*
X137320000Y-87540600D03*
D12*
X128430000Y-85000600D03*
X134780000Y-82460600D03*
%TD*%
D10*
%TO.C,SW21*%
X325280000Y-146595600D03*
D11*
X330360000Y-146595600D03*
D10*
X335440000Y-146595600D03*
D12*
X326550000Y-144055600D03*
X332900000Y-141515600D03*
%TD*%
D10*
%TO.C,SW29*%
X203667210Y-102797409D03*
D11*
X208636200Y-103853600D03*
D10*
X213605190Y-104909791D03*
D12*
X205437553Y-100576963D03*
X212176886Y-99412706D03*
%TD*%
D10*
%TO.C,SW11*%
X341472500Y-108495600D03*
D11*
X346552500Y-108495600D03*
D10*
X351632500Y-108495600D03*
D12*
X342742500Y-105955600D03*
X349092500Y-103415600D03*
%TD*%
D10*
%TO.C,SW44*%
X135451910Y-167173909D03*
D11*
X140420900Y-168230100D03*
D10*
X145389890Y-169286291D03*
D12*
X137222253Y-164953463D03*
X143961586Y-163789206D03*
%TD*%
D10*
%TO.C,SW2*%
X309087500Y-87540600D03*
D11*
X314167500Y-87540600D03*
D10*
X319247500Y-87540600D03*
D12*
X310357500Y-85000600D03*
X316707500Y-82460600D03*
%TD*%
D10*
%TO.C,SW14*%
X114777500Y-127545600D03*
D11*
X119857500Y-127545600D03*
D10*
X124937500Y-127545600D03*
D12*
X116047500Y-125005600D03*
X122397500Y-122465600D03*
%TD*%
D13*
%TO.C,H4*%
X373730500Y-96430600D03*
D14*
X373730500Y-81220600D03*
D13*
X349854500Y-96430600D03*
D14*
X349854500Y-81220600D03*
%TD*%
D10*
%TO.C,SW9*%
X113825000Y-108495600D03*
D11*
X118905000Y-108495600D03*
D10*
X123985000Y-108495600D03*
D12*
X115095000Y-105955600D03*
X121445000Y-103415600D03*
%TD*%
D10*
%TO.C,SW60*%
X285011410Y-149668091D03*
D11*
X289980400Y-148611900D03*
D10*
X294949390Y-147555709D03*
D12*
X285725562Y-146919549D03*
X291408704Y-143114814D03*
%TD*%
D10*
%TO.C,SW27*%
X166399810Y-94876009D03*
D11*
X171368800Y-95932200D03*
D10*
X176337790Y-96988391D03*
D12*
X168170153Y-92655563D03*
X174909486Y-91491306D03*
%TD*%
D10*
%TO.C,SW62*%
X289170110Y-169233491D03*
D11*
X294139100Y-168177300D03*
D10*
X299108090Y-167121109D03*
D12*
X289884262Y-166484949D03*
X295567404Y-162680214D03*
%TD*%
D10*
%TO.C,SW49*%
X226778910Y-123094591D03*
D11*
X231747900Y-122038400D03*
D10*
X236716890Y-120982209D03*
D12*
X227493062Y-120346049D03*
X233176204Y-116541314D03*
%TD*%
D10*
%TO.C,SW28*%
X185033510Y-98836709D03*
D11*
X190002500Y-99892900D03*
D10*
X194971490Y-100949091D03*
D12*
X186803853Y-96616263D03*
X193543186Y-95452006D03*
%TD*%
D15*
%TO.C,H10*%
X389272500Y-172170600D03*
%TD*%
D10*
%TO.C,SW33*%
X190389610Y-119450709D03*
D11*
X195358600Y-120506900D03*
D10*
X200327590Y-121563091D03*
D12*
X192159953Y-117230263D03*
X198899286Y-116066006D03*
%TD*%
D10*
%TO.C,SW32*%
X171755910Y-115490009D03*
D11*
X176724900Y-116546200D03*
D10*
X181693890Y-117602391D03*
D12*
X173526253Y-113269563D03*
X180265586Y-112105306D03*
%TD*%
D10*
%TO.C,SW19*%
X120492500Y-146595600D03*
D11*
X125572500Y-146595600D03*
D10*
X130652500Y-146595600D03*
D12*
X121762500Y-144055600D03*
X128112500Y-141515600D03*
%TD*%
D10*
%TO.C,SW22*%
X351473800Y-146595600D03*
D11*
X356553800Y-146595600D03*
D10*
X361633800Y-146595600D03*
D12*
X352743800Y-144055600D03*
X359093800Y-141515600D03*
%TD*%
D13*
%TO.C,H5*%
X378969300Y-134530600D03*
D14*
X378969300Y-119320600D03*
D13*
X355093300Y-134530600D03*
D14*
X355093300Y-119320600D03*
%TD*%
D10*
%TO.C,SW41*%
X197375210Y-159886709D03*
D11*
X202344200Y-160942900D03*
D10*
X207313190Y-161999091D03*
D12*
X199145553Y-157666263D03*
X205884886Y-156502006D03*
%TD*%
D10*
%TO.C,SW4*%
X108110000Y-89445600D03*
D11*
X113190000Y-89445600D03*
D10*
X118270000Y-89445600D03*
D12*
X109380000Y-86905600D03*
X115730000Y-84365600D03*
%TD*%
D10*
%TO.C,SW23*%
X377667500Y-146595600D03*
D11*
X382747500Y-146595600D03*
D10*
X387827500Y-146595600D03*
D12*
X378937500Y-144055600D03*
X385287500Y-141515600D03*
%TD*%
D10*
%TO.C,SW36*%
X173385310Y-135312009D03*
D11*
X178354300Y-136368200D03*
D10*
X183323290Y-137424391D03*
D12*
X175155653Y-133091563D03*
X181894986Y-131927306D03*
%TD*%
D10*
%TO.C,SW35*%
X154751610Y-131351209D03*
D11*
X159720600Y-132407400D03*
D10*
X164689590Y-133463591D03*
D12*
X156521953Y-129130763D03*
X163261286Y-127966506D03*
%TD*%
D10*
%TO.C,SW6*%
X356712500Y-89445600D03*
D11*
X361792500Y-89445600D03*
D10*
X366872500Y-89445600D03*
D12*
X357982500Y-86905600D03*
X364332500Y-84365600D03*
%TD*%
D10*
%TO.C,SW54*%
X252168410Y-137173491D03*
D11*
X257137400Y-136117300D03*
D10*
X262106390Y-135061109D03*
D12*
X252882562Y-134424949D03*
X258565704Y-130620214D03*
%TD*%
D15*
%TO.C,H9*%
X389272500Y-81015600D03*
%TD*%
D10*
%TO.C,SW16*%
X330995000Y-127545600D03*
D11*
X336075000Y-127545600D03*
D10*
X341155000Y-127545600D03*
D12*
X332265000Y-125005600D03*
X338615000Y-122465600D03*
%TD*%
D10*
%TO.C,SW43*%
X198538710Y-179609709D03*
D11*
X203507700Y-180665900D03*
D10*
X208476690Y-181722091D03*
D12*
X200309053Y-177389263D03*
X207048386Y-176225006D03*
%TD*%
D10*
%TO.C,SW25*%
X369095000Y-165645600D03*
D11*
X374175000Y-165645600D03*
D10*
X379255000Y-165645600D03*
D12*
X370365000Y-163105600D03*
X376715000Y-160565600D03*
%TD*%
D10*
%TO.C,SW15*%
X311945000Y-127545600D03*
D11*
X317025000Y-127545600D03*
D10*
X322105000Y-127545600D03*
D12*
X313215000Y-125005600D03*
X319565000Y-122465600D03*
%TD*%
D10*
%TO.C,SW59*%
X266377610Y-153628791D03*
D11*
X271346600Y-152572600D03*
D10*
X276315590Y-151516409D03*
D12*
X267091762Y-150880249D03*
X272774904Y-147075514D03*
%TD*%
D10*
%TO.C,SW18*%
X89536300Y-146595600D03*
D11*
X94616300Y-146595600D03*
D10*
X99696300Y-146595600D03*
D12*
X90806300Y-144055600D03*
X97156300Y-141515600D03*
%TD*%
D10*
%TO.C,SW53*%
X233534710Y-141134191D03*
D11*
X238503700Y-140078000D03*
D10*
X243472690Y-139021809D03*
D12*
X234248862Y-138385649D03*
X239932004Y-134580914D03*
%TD*%
D16*
%TO.C,A1*%
X75415000Y-81428100D03*
D17*
X75115000Y-84458100D03*
X70265000Y-84458100D03*
D16*
X69965000Y-81428100D03*
D18*
X81580000Y-81298100D03*
D19*
X81580000Y-83838100D03*
D20*
X81580000Y-86378100D03*
D19*
X81580000Y-88918100D03*
X81580000Y-91458100D03*
X81580000Y-93998100D03*
X81580000Y-96538100D03*
D20*
X81580000Y-99078100D03*
D19*
X81580000Y-101618100D03*
X81580000Y-104158100D03*
X81580000Y-106698100D03*
X81580000Y-109238100D03*
D20*
X81580000Y-111778100D03*
D19*
X81580000Y-114318100D03*
X81580000Y-116858100D03*
X81580000Y-119398100D03*
X81580000Y-121938100D03*
D20*
X81580000Y-124478100D03*
D19*
X81580000Y-127018100D03*
X81580000Y-129558100D03*
X63800000Y-129558100D03*
X63800000Y-127018100D03*
D21*
X63800000Y-124478100D03*
D19*
X63800000Y-121938100D03*
X63800000Y-119398100D03*
X63800000Y-116858100D03*
X63800000Y-114318100D03*
D21*
X63800000Y-111778100D03*
D19*
X63800000Y-109238100D03*
X63800000Y-106698100D03*
X63800000Y-104158100D03*
X63800000Y-101618100D03*
D21*
X63800000Y-99078100D03*
D19*
X63800000Y-96538100D03*
X63800000Y-93998100D03*
X63800000Y-91458100D03*
X63800000Y-88918100D03*
D21*
X63800000Y-86378100D03*
D19*
X63800000Y-83838100D03*
X63800000Y-81298100D03*
%TD*%
M02*
