M48
; DRILL file {KiCad 9.0.3} date 2025-08-01T16:02:52+0500
; FORMAT={-:-/ absolute / metric / decimal}
; #@! TF.CreationDate,2025-08-01T16:02:52+05:00
; #@! TF.GenerationSoftware,Kicad,Pcbnew,9.0.3
; #@! TF.FileFunction,NonPlated,1,2,NPTH
FMAT,2
METRIC
; #@! TA.AperFunction,NonPlated,NPTH,ComponentDrill
T1C1.750
; #@! TA.AperFunction,NonPlated,NPTH,ComponentDrill
T2C1.850
; #@! TA.AperFunction,NonPlated,NPTH,ComponentDrill
T3C2.200
; #@! TA.AperFunction,NonPlated,NPTH,ComponentDrill
T4C3.048
; #@! TA.AperFunction,NonPlated,NPTH,ComponentDrill
T5C3.988
; #@! TA.AperFunction,NonPlated,NPTH,ComponentDrill
T6C4.000
%
G90
G05
T1
X82.392Y-165.646
X88.584Y-127.546
X89.06Y-89.446
X89.536Y-146.596
X90.013Y-108.496
X92.552Y-165.646
X98.744Y-127.546
X99.22Y-89.446
X99.696Y-146.596
X100.172Y-108.496
X108.11Y-89.446
X113.825Y-108.496
X114.777Y-127.546
X118.27Y-89.446
X120.492Y-146.596
X123.985Y-108.496
X124.938Y-127.546
X127.16Y-87.541
X130.653Y-146.596
X134.489Y-107.569
X135.452Y-167.174
X136.118Y-127.391
X137.32Y-87.541
X141.474Y-148.005
X144.426Y-109.681
X145.39Y-169.286
X146.056Y-129.503
X147.766Y-90.915
X151.412Y-150.117
X153.122Y-111.529
X154.752Y-131.351
X157.704Y-93.028
X160.108Y-151.965
X163.06Y-113.642
X164.69Y-133.464
X166.4Y-94.876
X168.259Y-173.174
X170.046Y-154.078
X171.756Y-115.49
X173.385Y-135.312
X176.338Y-96.988
X178.197Y-175.286
X178.741Y-155.926
X181.694Y-117.602
X183.323Y-137.424
X185.034Y-98.837
X188.679Y-158.038
X190.39Y-119.451
X192.019Y-139.273
X194.971Y-100.949
X197.375Y-159.887
X198.539Y-179.61
X200.328Y-121.563
X201.957Y-141.385
X203.667Y-102.797
X207.313Y-161.999
X208.477Y-181.722
X213.605Y-104.91
X226.779Y-123.095
X229.11Y-161.55
X232.135Y-102.481
X233.535Y-141.134
X236.717Y-120.982
X239.048Y-159.438
X242.073Y-100.368
X243.473Y-139.022
X245.413Y-119.134
X247.744Y-157.59
X249.375Y-176.718
X250.769Y-98.52
X252.168Y-137.173
X255.351Y-117.022
X257.682Y-155.477
X259.313Y-174.606
X260.707Y-96.407
X262.106Y-135.061
X264.046Y-115.173
X266.378Y-153.629
X269.403Y-94.559
X270.802Y-133.213
X273.984Y-113.061
X276.316Y-151.516
X279.34Y-92.447
X280.74Y-131.1
X282.68Y-111.212
X285.011Y-149.668
X288.036Y-90.598
X289.17Y-169.233
X289.436Y-129.252
X292.618Y-109.1
X294.949Y-147.556
X297.974Y-88.486
X299.108Y-167.121
X299.374Y-127.14
X303.373Y-107.543
X306.23Y-146.596
X309.087Y-87.541
X311.945Y-127.546
X313.532Y-107.543
X316.39Y-146.596
X319.248Y-87.541
X322.105Y-127.546
X322.423Y-108.496
X325.28Y-146.596
X328.137Y-89.446
X330.995Y-127.546
X332.582Y-108.496
X335.44Y-146.596
X338.297Y-89.446
X341.155Y-127.546
X341.472Y-108.496
X351.474Y-146.596
X351.632Y-108.496
X356.712Y-89.446
X361.634Y-146.596
X361.951Y-127.546
X365.285Y-108.496
X366.873Y-89.446
X369.095Y-165.646
X372.111Y-127.546
X375.445Y-108.496
X377.667Y-146.596
X379.255Y-165.646
X387.827Y-146.596
T2
X70.265Y-84.458
X75.115Y-84.458
T3
X69.965Y-81.428
X75.415Y-81.428
T4
X82.678Y-153.581
X106.554Y-153.581
X160.099Y-178.58
X183.453Y-183.544
X244.12Y-184.977
X267.474Y-180.013
X349.854Y-96.431
X355.093Y-134.531
X373.731Y-96.431
X378.969Y-134.531
T5
X82.678Y-138.371
X106.554Y-138.371
X163.261Y-163.702
X186.615Y-168.666
X240.957Y-170.099
X264.311Y-165.135
X349.854Y-81.221
X355.093Y-119.321
X373.731Y-81.221
X378.969Y-119.321
T6
X87.472Y-165.646
X93.664Y-127.546
X94.14Y-89.446
X94.616Y-146.596
X95.093Y-108.496
X113.19Y-89.446
X118.905Y-108.496
X119.857Y-127.546
X125.572Y-146.596
X132.24Y-87.541
X139.457Y-108.625
X140.421Y-168.23
X141.087Y-128.447
X146.443Y-149.061
X152.735Y-91.971
X158.091Y-112.585
X159.721Y-132.407
X165.077Y-153.022
X171.369Y-95.932
X173.228Y-174.23
X176.725Y-116.546
X178.354Y-136.368
X183.71Y-156.982
X190.002Y-99.893
X195.359Y-120.507
X196.988Y-140.329
X202.344Y-160.943
X203.508Y-180.666
X208.636Y-103.854
X231.748Y-122.038
X234.079Y-160.494
X237.104Y-101.424
X238.504Y-140.078
X250.382Y-118.078
X252.713Y-156.533
X254.344Y-175.662
X255.738Y-97.464
X257.137Y-136.117
X269.015Y-114.117
X271.347Y-152.573
X274.371Y-93.503
X275.771Y-132.157
X287.649Y-110.156
X289.98Y-148.612
X293.005Y-89.542
X294.139Y-168.177
X294.405Y-128.196
X308.452Y-107.543
X311.31Y-146.596
X314.167Y-87.541
X317.025Y-127.546
X327.502Y-108.496
X330.36Y-146.596
X333.217Y-89.446
X336.075Y-127.546
X346.553Y-108.496
X356.554Y-146.596
X361.792Y-89.446
X367.031Y-127.546
X370.365Y-108.496
X374.175Y-165.646
X382.748Y-146.596
M30
