M48
; DRILL file {KiCad 9.0.3} date 2025-08-01T16:02:52+0500
; FORMAT={-:-/ absolute / metric / decimal}
; #@! TF.CreationDate,2025-08-01T16:02:52+05:00
; #@! TF.GenerationSoftware,Kicad,Pcbnew,9.0.3
; #@! TF.FileFunction,Plated,1,2,PTH
FMAT,2
METRIC
; #@! TA.AperFunction,Plated,PTH,ViaDrill
T1C0.300
; #@! TA.AperFunction,Plated,PTH,ComponentDrill
T2C1.000
; #@! TA.AperFunction,Plated,PTH,ComponentDrill
T3C2.200
; #@! TA.AperFunction,Plated,PTH,ComponentDrill
T4C3.050
%
G90
G05
T1
X67.562Y-160.052
X76.995Y-137.071
X82.53Y-159.926
X82.79Y-134.216
X82.79Y-143.116
X84.6Y-148.104
X86.197Y-132.241
X87.623Y-160.412
X87.714Y-115.58
X91.03Y-110.295
X92.19Y-136.516
X92.345Y-109.947
X92.49Y-112.316
X93.89Y-103.216
X94.49Y-99.516
X97.26Y-131.63
X97.498Y-94.398
X98.543Y-130.549
X99.341Y-87.663
X99.579Y-144.813
X100.492Y-99.118
X100.494Y-133.835
X100.89Y-106.116
X101.158Y-145.06
X103.486Y-92.499
X103.486Y-142.13
X106.058Y-97.327
X106.48Y-99.518
X107.09Y-128.016
X107.306Y-133.084
X107.49Y-142.316
X108.99Y-109.516
X109.69Y-116.416
X110.29Y-121.516
X112.59Y-140.216
X118.455Y-87.663
X119.056Y-94.83
X123.377Y-113.291
X124.737Y-130.551
X124.816Y-120.587
X125.572Y-139.346
X126.254Y-120.108
X126.668Y-103.3
X127.436Y-97.327
X127.436Y-100.314
X133.423Y-118.121
X135.097Y-139.116
X136.007Y-91.353
X136.417Y-115.248
X142.629Y-107.397
X143.207Y-167.014
X144.637Y-121.446
X144.912Y-127.856
X148.392Y-128.097
X150.356Y-154.999
X150.722Y-118.074
X151.095Y-127.118
X151.385Y-148.304
X154.651Y-106.112
X156.475Y-94.152
X160.19Y-127.516
X161.662Y-126.261
X162.722Y-137.465
X162.759Y-111.807
X162.839Y-154.884
X163.169Y-131.251
X168.386Y-154.078
X168.654Y-157.0
X171.99Y-140.116
X174.745Y-125.863
X175.335Y-95.057
X175.335Y-109.274
X175.708Y-99.91
X176.064Y-173.009
X177.215Y-130.716
X178.69Y-142.116
X180.709Y-120.239
X181.322Y-115.753
X181.357Y-174.744
X182.509Y-135.702
X184.883Y-138.302
X188.51Y-156.242
X189.49Y-130.816
X190.111Y-114.433
X190.303Y-103.468
X190.675Y-157.351
X190.99Y-144.659
X197.06Y-123.412
X198.686Y-103.735
X199.284Y-151.091
X199.99Y-89.216
X202.23Y-151.888
X202.39Y-132.016
X202.526Y-174.875
X204.439Y-111.43
X205.272Y-112.261
X206.49Y-106.816
X206.59Y-146.416
X206.89Y-134.716
X206.99Y-130.616
X208.238Y-145.089
X208.266Y-88.366
X208.266Y-127.194
X208.46Y-133.364
X209.39Y-153.816
X209.79Y-148.016
X210.19Y-112.616
X210.79Y-144.651
X212.59Y-149.516
X212.947Y-143.003
X214.253Y-124.209
X214.305Y-115.247
X214.699Y-127.039
X215.69Y-131.216
X215.99Y-154.616
X216.09Y-145.516
X216.69Y-136.516
X216.758Y-160.683
X217.89Y-89.316
X218.29Y-115.816
X218.79Y-139.216
X219.64Y-147.958
X219.69Y-124.016
X220.59Y-111.616
X222.89Y-161.616
X222.99Y-131.216
X223.09Y-145.116
X225.19Y-149.516
X225.59Y-146.716
X227.09Y-129.316
X227.29Y-125.216
X228.634Y-155.716
X228.645Y-130.183
X231.268Y-162.175
X232.19Y-166.116
X232.435Y-156.91
X234.89Y-150.016
X235.811Y-130.183
X237.69Y-162.216
X238.203Y-118.95
X239.89Y-115.516
X240.744Y-156.01
X240.89Y-119.816
X241.196Y-151.091
X241.199Y-157.04
X242.69Y-153.116
X243.39Y-88.416
X244.19Y-98.122
X244.19Y-137.012
X244.941Y-140.873
X250.09Y-124.116
X250.163Y-160.066
X250.69Y-151.016
X254.148Y-132.41
X256.731Y-153.95
X259.159Y-109.274
X260.383Y-94.639
X260.39Y-154.316
X262.025Y-115.33
X262.152Y-145.117
X262.152Y-154.285
X262.214Y-94.823
X263.09Y-126.516
X263.39Y-158.116
X265.376Y-132.982
X267.99Y-137.316
X270.506Y-149.367
X273.808Y-150.493
X275.051Y-111.732
X277.802Y-153.887
X278.325Y-90.984
X279.39Y-146.016
X280.114Y-115.248
X281.29Y-152.316
X281.39Y-157.616
X283.051Y-144.732
X283.19Y-140.816
X283.29Y-131.016
X283.79Y-127.216
X286.49Y-133.216
X287.09Y-137.716
X288.69Y-152.616
X288.972Y-145.234
X289.095Y-97.327
X289.99Y-157.516
X295.083Y-154.078
X295.153Y-112.261
X295.39Y-145.416
X298.108Y-151.123
X298.339Y-140.011
X298.39Y-133.116
X299.09Y-157.216
X299.944Y-130.041
X300.19Y-144.116
X301.4Y-160.856
X304.629Y-112.993
X305.69Y-110.116
X307.058Y-125.404
X310.631Y-105.692
X313.557Y-144.745
X314.614Y-106.076
X316.039Y-154.078
X320.178Y-85.929
X321.002Y-126.309
X321.095Y-129.798
X321.669Y-103.187
X331.007Y-115.248
X331.007Y-151.091
X332.57Y-144.897
X334.001Y-93.54
X334.603Y-108.371
X336.835Y-106.918
X350.962Y-113.291
X351.282Y-106.713
X360.944Y-154.078
X366.932Y-94.83
X366.932Y-130.736
X372.919Y-136.156
X381.19Y-152.716
X381.9Y-112.261
X382.07Y-133.169
X384.59Y-157.816
X388.462Y-165.646
T2
X63.8Y-81.298
X63.8Y-83.838
X63.8Y-86.378
X63.8Y-88.918
X63.8Y-91.458
X63.8Y-93.998
X63.8Y-96.538
X63.8Y-99.078
X63.8Y-101.618
X63.8Y-104.158
X63.8Y-106.698
X63.8Y-109.238
X63.8Y-111.778
X63.8Y-114.318
X63.8Y-116.858
X63.8Y-119.398
X63.8Y-121.938
X63.8Y-124.478
X63.8Y-127.018
X63.8Y-129.558
X81.58Y-81.298
X81.58Y-83.838
X81.58Y-86.378
X81.58Y-88.918
X81.58Y-91.458
X81.58Y-93.998
X81.58Y-96.538
X81.58Y-99.078
X81.58Y-101.618
X81.58Y-104.158
X81.58Y-106.698
X81.58Y-109.238
X81.58Y-111.778
X81.58Y-114.318
X81.58Y-116.858
X81.58Y-119.398
X81.58Y-121.938
X81.58Y-124.478
X81.58Y-127.018
X81.58Y-129.558
T3
X57.19Y-81.016
X58.19Y-171.171
X223.231Y-136.146
X389.272Y-81.016
X389.272Y-172.171
T4
X83.662Y-163.106
X89.854Y-125.006
X90.013Y-160.566
X90.33Y-86.906
X90.806Y-144.056
X91.282Y-105.956
X96.204Y-122.466
X96.68Y-84.366
X97.156Y-141.516
X97.632Y-103.416
X109.38Y-86.906
X115.095Y-105.956
X115.73Y-84.366
X116.047Y-125.006
X121.445Y-103.416
X121.762Y-144.056
X122.397Y-122.466
X128.112Y-141.516
X128.43Y-85.001
X134.78Y-82.461
X136.259Y-105.348
X137.222Y-164.953
X137.888Y-125.17
X142.998Y-104.184
X143.244Y-145.784
X143.962Y-163.789
X144.628Y-124.006
X149.536Y-88.695
X149.984Y-144.62
X154.893Y-109.309
X156.276Y-87.531
X156.522Y-129.131
X161.632Y-108.145
X161.878Y-149.745
X163.261Y-127.967
X168.17Y-92.656
X168.617Y-148.581
X170.029Y-170.953
X173.526Y-113.27
X174.909Y-91.491
X175.156Y-133.092
X176.769Y-169.789
X180.266Y-112.105
X180.512Y-153.706
X181.895Y-131.927
X186.804Y-96.616
X187.251Y-152.541
X192.16Y-117.23
X193.543Y-95.452
X193.789Y-137.052
X198.899Y-116.066
X199.146Y-157.666
X200.309Y-177.389
X200.529Y-135.888
X205.438Y-100.577
X205.885Y-156.502
X207.048Y-176.225
X212.177Y-99.413
X227.493Y-120.346
X229.824Y-158.802
X232.849Y-99.732
X233.176Y-116.541
X234.249Y-138.386
X235.508Y-154.997
X238.532Y-95.927
X239.932Y-134.581
X246.127Y-116.385
X248.458Y-154.841
X250.09Y-173.97
X251.483Y-95.771
X251.81Y-112.581
X252.883Y-134.425
X254.141Y-151.036
X255.773Y-170.165
X257.166Y-91.967
X258.566Y-130.62
X264.76Y-112.425
X267.092Y-150.88
X270.117Y-91.811
X270.444Y-108.62
X271.516Y-130.464
X272.775Y-147.076
X275.8Y-88.006
X277.199Y-126.66
X283.394Y-108.464
X285.726Y-146.92
X288.75Y-87.85
X289.077Y-104.659
X289.884Y-166.485
X290.15Y-126.504
X291.409Y-143.115
X294.434Y-84.045
X295.567Y-162.68
X295.833Y-122.699
X304.642Y-105.003
X307.5Y-144.056
X310.357Y-85.001
X310.993Y-102.463
X313.215Y-125.006
X313.85Y-141.516
X316.707Y-82.461
X319.565Y-122.466
X323.692Y-105.956
X326.55Y-144.056
X329.407Y-86.906
X330.042Y-103.416
X332.265Y-125.006
X332.9Y-141.516
X335.757Y-84.366
X338.615Y-122.466
X342.743Y-105.956
X349.092Y-103.416
X352.744Y-144.056
X357.982Y-86.906
X359.094Y-141.516
X363.221Y-125.006
X364.332Y-84.366
X366.555Y-105.956
X369.571Y-122.466
X370.365Y-163.106
X372.905Y-103.416
X376.715Y-160.566
X378.938Y-144.056
X385.287Y-141.516
M30
