%TF.GenerationSoftware,KiCad,Pcbnew,9.0.3*%
%TF.CreationDate,2025-08-01T16:01:54+05:00*%
%TF.ProjectId,plate,706c6174-652e-46b6-9963-61645f706362,rev?*%
%TF.SameCoordinates,Original*%
%TF.FileFunction,Soldermask,Top*%
%TF.FilePolarity,Negative*%
%FSLAX46Y46*%
G04 Gerber Fmt 4.6, Leading zero omitted, Abs format (unit mm)*
G04 Created by KiCad (PCBNEW 9.0.3) date 2025-08-01 16:01:54*
%MOMM*%
%LPD*%
G01*
G04 APERTURE LIST*
%ADD10C,0.150000*%
G04 APERTURE END LIST*
D10*
G36*
X32858078Y-89441207D02*
G01*
X34161700Y-89523947D01*
X35365231Y-89550505D01*
X41506107Y-89550505D01*
X42309708Y-89521990D01*
X42578943Y-89468684D01*
X42776780Y-89427773D01*
X42947750Y-89495551D01*
X43364184Y-89934577D01*
X43419139Y-90085397D01*
X43388454Y-90203858D01*
X43296407Y-90284455D01*
X43155301Y-90405031D01*
X43002094Y-90608077D01*
X42410767Y-91424748D01*
X41767310Y-92163623D01*
X41070433Y-92829174D01*
X40317865Y-93424808D01*
X40181089Y-93466329D01*
X40037596Y-93411374D01*
X39765794Y-93231211D01*
X39450192Y-93115230D01*
X40340862Y-92483260D01*
X41114811Y-91791923D01*
X41781092Y-91039634D01*
X42346302Y-90222784D01*
X35433619Y-90222784D01*
X34403851Y-90250286D01*
X33206735Y-90338799D01*
X33151780Y-90338799D01*
X33022135Y-90301563D01*
X32967377Y-90195307D01*
X32858078Y-89441207D01*
G37*
G36*
X33951065Y-98873255D02*
G01*
X34757997Y-98401067D01*
X35432565Y-97891496D01*
X35989379Y-97345301D01*
X36440051Y-96760957D01*
X36792830Y-96134682D01*
X37077446Y-95441946D01*
X37291569Y-94642689D01*
X37427897Y-93721297D01*
X37476100Y-92660327D01*
X37439344Y-92100276D01*
X37332607Y-91590544D01*
X37911063Y-91668414D01*
X38282101Y-91767620D01*
X38407746Y-91851525D01*
X38445744Y-91965457D01*
X38398116Y-92121772D01*
X38302598Y-92355629D01*
X38268668Y-92646284D01*
X38215669Y-93756933D01*
X38063344Y-94754706D01*
X37819627Y-95652538D01*
X37489533Y-96461967D01*
X37040354Y-97224746D01*
X36461449Y-97939904D01*
X35740251Y-98611720D01*
X34859648Y-99241451D01*
X34702722Y-99289078D01*
X34538469Y-99220690D01*
X34270216Y-99015732D01*
X33951065Y-98873255D01*
G37*
G36*
X40092551Y-113533077D02*
G01*
X41130583Y-113533077D01*
X43494243Y-113492166D01*
X43619405Y-113528291D01*
X43657886Y-113628332D01*
X43657886Y-114090561D01*
X43620334Y-114203218D01*
X43507677Y-114240771D01*
X41076239Y-114213293D01*
X34948186Y-114213293D01*
X32694435Y-114274965D01*
X32639481Y-114274965D01*
X32530711Y-114234712D01*
X32482555Y-114104605D01*
X32441644Y-113478733D01*
X34913992Y-113533077D01*
X39327460Y-113533077D01*
X40078507Y-108132868D01*
X36662771Y-108132868D01*
X34681961Y-108187822D01*
X34551588Y-108146008D01*
X34484125Y-108017463D01*
X34429170Y-107370219D01*
X35626142Y-107432831D01*
X36696965Y-107452651D01*
X39572924Y-107452651D01*
X40061187Y-107420819D01*
X40249477Y-107356786D01*
X40420447Y-107302442D01*
X40584090Y-107356786D01*
X41042045Y-107758565D01*
X41110433Y-107928925D01*
X41042045Y-108105390D01*
X40900310Y-108366705D01*
X40809404Y-108744696D01*
X40092551Y-113533077D01*
G37*
G36*
X37311846Y-122298709D02*
G01*
X37921965Y-122495038D01*
X38357206Y-122716364D01*
X38419105Y-122780352D01*
X38439027Y-122859856D01*
X38414839Y-122959478D01*
X38329728Y-123079064D01*
X38076959Y-123437342D01*
X37810712Y-124078018D01*
X36985481Y-126493813D01*
X36094892Y-128823899D01*
X35139917Y-131071301D01*
X38534512Y-130776070D01*
X41479240Y-130388032D01*
X40961813Y-129516325D01*
X40379574Y-128677487D01*
X39730461Y-127869888D01*
X40208566Y-127576186D01*
X40324582Y-127535275D01*
X40387840Y-127555781D01*
X40461358Y-127631140D01*
X41333624Y-128769239D01*
X42219834Y-130171389D01*
X43118720Y-131875471D01*
X43145587Y-131964009D01*
X43126620Y-132031658D01*
X43063765Y-132094068D01*
X42585660Y-132360293D01*
X42517272Y-132381053D01*
X42446361Y-132353487D01*
X42373779Y-132250383D01*
X42090413Y-131608895D01*
X41786375Y-131029169D01*
X38559944Y-131468704D01*
X34804693Y-131870586D01*
X33784066Y-132017361D01*
X33377094Y-132164288D01*
X33185974Y-132232676D01*
X33081539Y-132205142D01*
X33015004Y-132123377D01*
X32721302Y-131153122D01*
X33425332Y-131187316D01*
X34347349Y-131153122D01*
X35390224Y-128640049D01*
X36262532Y-126298836D01*
X36977234Y-124118928D01*
X37227496Y-123067779D01*
X37311846Y-122298709D01*
G37*
M02*
