%TF.GenerationSoftware,KiCad,Pcbnew,9.0.3*%
%TF.CreationDate,2025-08-01T16:01:54+05:00*%
%TF.ProjectId,plate,706c6174-652e-46b6-9963-61645f706362,rev?*%
%TF.SameCoordinates,Original*%
%TF.FileFunction,Profile,NP*%
%FSLAX46Y46*%
G04 Gerber Fmt 4.6, Leading zero omitted, Abs format (unit mm)*
G04 Created by KiCad (PCBNEW 9.0.3) date 2025-08-01 16:01:54*
%MOMM*%
%LPD*%
G01*
G04 APERTURE LIST*
%TA.AperFunction,Profile*%
%ADD10C,0.200000*%
%TD*%
%TA.AperFunction,Profile*%
%ADD11C,0.050000*%
%TD*%
G04 APERTURE END LIST*
D10*
X110723200Y-96144800D02*
X110723200Y-90344800D01*
X314558800Y-136149300D02*
X314558800Y-130347900D01*
X265513800Y-108369500D02*
X264731800Y-108534900D01*
X118951400Y-141641000D02*
X119596600Y-138607800D01*
X326275800Y-92849800D02*
X324750800Y-92849800D01*
X311034800Y-111299300D02*
X311034800Y-117099300D01*
X59576000Y-120199800D02*
X59576000Y-121198900D01*
X211533800Y-133132700D02*
X211325800Y-132155800D01*
X50822700Y-159068900D02*
X52549300Y-159068900D01*
X267364800Y-117074600D02*
X266581800Y-117240000D01*
X164069800Y-158437800D02*
X163286800Y-158272300D01*
X146316800Y-166932000D02*
X147097800Y-167098700D01*
X292650800Y-87243800D02*
X292650800Y-86243800D01*
X211325800Y-132155800D02*
X212106800Y-131987600D01*
X58146900Y-139249900D02*
X58146900Y-140248900D01*
X306784800Y-108200100D02*
X305985800Y-108200100D01*
X76349600Y-159068900D02*
X76349600Y-160050000D01*
X334848800Y-121198900D02*
X348847800Y-121198900D01*
X337858800Y-165348600D02*
X337858800Y-168447900D01*
X76349600Y-145847900D02*
X76349600Y-146770000D01*
X106970700Y-126825700D02*
X106186800Y-126658900D01*
X92472600Y-98048800D02*
X91673200Y-98048800D01*
X218343800Y-98918900D02*
X218988800Y-101952100D01*
X335836800Y-158299900D02*
X335836800Y-155199300D01*
X334848800Y-120199800D02*
X334848800Y-121198900D01*
X144236800Y-134748100D02*
X143455800Y-134579800D01*
X265376800Y-111568100D02*
X266157800Y-111401200D01*
X267845800Y-146825000D02*
X267061800Y-146991900D01*
X161021800Y-147413500D02*
X160238800Y-147246600D01*
D11*
X27670041Y-180872799D02*
X98459833Y-180872799D01*
D10*
X133974800Y-105882000D02*
X134757800Y-106048900D01*
X58623700Y-88149800D02*
X58623700Y-89149800D01*
X248799800Y-125211800D02*
X248591800Y-124233500D01*
X130176800Y-151234800D02*
X129532800Y-154266500D01*
X278650800Y-96144800D02*
X277849800Y-96144800D01*
X236714800Y-146233800D02*
X237497800Y-146067300D01*
X115341000Y-101921700D02*
X116123800Y-102088200D01*
X218863800Y-150029000D02*
X218219800Y-146995800D01*
X294842800Y-145299600D02*
X294842800Y-146300100D01*
X125604800Y-130786000D02*
X124821800Y-130620600D01*
X200354800Y-105912400D02*
X201137800Y-105745800D01*
X249375800Y-124066700D02*
X248729800Y-121035200D01*
X73422600Y-98048800D02*
X72623200Y-98048800D01*
X221620800Y-110491800D02*
X221828800Y-111468600D01*
X340275800Y-89149800D02*
X340275800Y-88149800D01*
X118930900Y-178391800D02*
X118146700Y-178225000D01*
X156093800Y-97292800D02*
X155885800Y-98270800D01*
X315357800Y-130347900D02*
X315357800Y-127250100D01*
X117295100Y-182235100D02*
X117503200Y-181256700D01*
X314558800Y-127250100D02*
X314558800Y-126249600D01*
X117960700Y-142452400D02*
X118168900Y-141474100D01*
X340275800Y-92849800D02*
X340275800Y-92248800D01*
X103809800Y-178346300D02*
X103601600Y-179326100D01*
X232195800Y-177660000D02*
X232071800Y-177073000D01*
X287734800Y-107246600D02*
X286935800Y-107246600D01*
X341074800Y-101149900D02*
X341074800Y-98048800D01*
X77672500Y-102148900D02*
X91673200Y-102148900D01*
X154450800Y-126541700D02*
X155656800Y-120868400D01*
X234254800Y-124112200D02*
X233471800Y-124279000D01*
X51154800Y-174249400D02*
X51154800Y-177348600D01*
X74374700Y-111299300D02*
X74374700Y-108200100D01*
X169599800Y-178066600D02*
X169391800Y-179045000D01*
X233277800Y-182746400D02*
X233151800Y-182159300D01*
X149233800Y-109126200D02*
X149878800Y-106093000D01*
X281507800Y-130347900D02*
X281507800Y-136149300D01*
X315357800Y-139249900D02*
X315357800Y-136149300D01*
X347230800Y-145299600D02*
X347230800Y-146300100D01*
X81373800Y-159068900D02*
X81373800Y-152799000D01*
X324963800Y-127720000D02*
X323238800Y-127720000D01*
X58623700Y-102148900D02*
X72623200Y-102148900D01*
X310235800Y-117099300D02*
X310235800Y-120199800D01*
X321036800Y-149397900D02*
X321036800Y-155199300D01*
X296899800Y-101149900D02*
X297700800Y-101149900D01*
X353457800Y-168447900D02*
X353457800Y-165348600D01*
X318000800Y-92849800D02*
X317175800Y-92849800D01*
X186363800Y-113848400D02*
X187569800Y-108175100D01*
X252644800Y-129556900D02*
X238950800Y-132468800D01*
X310235800Y-111299300D02*
X311034800Y-111299300D01*
X331513800Y-130347900D02*
X331513800Y-130950000D01*
X122123900Y-119670700D02*
X121341100Y-119504200D01*
D11*
X189085477Y-199914422D02*
G75*
G02*
X188253838Y-199914404I-415777J1956322D01*
G01*
D10*
X322414800Y-130950000D02*
X322414800Y-133749000D01*
X253531800Y-123183300D02*
X253740800Y-124161900D01*
X308843800Y-155199300D02*
X308843800Y-149397900D01*
X216950800Y-177118500D02*
X217594800Y-180150100D01*
X161437800Y-166977500D02*
X162643800Y-161304100D01*
X106303900Y-166609500D02*
X105521100Y-166442800D01*
X74374700Y-120199800D02*
X74374700Y-117099300D01*
X290592800Y-149397900D02*
X290592800Y-146300100D01*
X132450800Y-96458800D02*
X133095800Y-93427800D01*
X174727800Y-101254600D02*
X174519800Y-102231800D01*
X286935800Y-119246300D02*
X287734800Y-119246300D01*
X156080800Y-146363300D02*
X157286800Y-140689900D01*
X160376800Y-150445300D02*
X160168800Y-151423500D01*
X208829800Y-120417900D02*
X208621800Y-119439300D01*
X58775300Y-120199800D02*
X59576000Y-120199800D01*
X220194800Y-107625400D02*
X220837800Y-110657200D01*
X213980800Y-190803770D02*
X214184800Y-191762870D01*
X315357800Y-127250100D02*
X314558800Y-127250100D01*
X305985800Y-108200100D02*
X305985800Y-107199600D01*
X252236800Y-91715800D02*
X251453800Y-91882800D01*
X352658800Y-178349100D02*
X352658800Y-177348600D01*
X249856800Y-153817100D02*
X249211800Y-150785700D01*
X96723900Y-90344800D02*
X96723900Y-96144800D01*
X213655800Y-170610000D02*
X214439800Y-170444600D01*
X159756800Y-182619600D02*
X161058800Y-176485900D01*
X287734800Y-119246300D02*
X287734800Y-116145700D01*
X153251800Y-106810900D02*
X152608800Y-109844100D01*
X147742800Y-164067100D02*
X146959800Y-163900300D01*
X151092800Y-187423400D02*
X151737800Y-184391800D01*
X338657800Y-174249400D02*
X337858800Y-174249400D01*
X161058800Y-176485900D02*
X159371800Y-176129000D01*
X234863800Y-137528600D02*
X235646800Y-137362100D01*
X311700800Y-102148900D02*
X311700800Y-101149900D01*
X58623700Y-89149800D02*
X57823100Y-89149800D01*
X123525100Y-162088300D02*
X124307800Y-162254800D01*
X278650800Y-99244100D02*
X278650800Y-100244600D01*
X117835200Y-90184800D02*
X117191700Y-93216800D01*
X83388500Y-121198900D02*
X97387800Y-121198900D01*
X176703800Y-144817400D02*
X177348800Y-141785600D01*
X129108800Y-160106400D02*
X128327800Y-159939900D01*
X269694800Y-155530200D02*
X268913800Y-155696700D01*
X160792800Y-170009100D02*
X161575800Y-170175900D01*
X96723900Y-100244600D02*
X110723200Y-100244600D01*
X173867800Y-130668900D02*
X173084800Y-130502000D01*
X186501800Y-117047100D02*
X187144800Y-114015300D01*
X72945600Y-136149300D02*
X72146600Y-136149300D01*
X50822700Y-146770000D02*
X50822700Y-150000000D01*
X138450800Y-114041400D02*
X137667800Y-113874900D01*
X346313800Y-139249900D02*
X346313800Y-136149300D01*
X159815800Y-121751700D02*
X160596800Y-121918200D01*
X153586800Y-187473100D02*
X153395800Y-188372900D01*
X230740800Y-128028700D02*
X230096800Y-124995500D01*
X218288800Y-151172700D02*
X218080800Y-150194400D01*
X112534000Y-146461300D02*
X112325800Y-147439600D01*
X346313800Y-136149300D02*
X345514800Y-136149300D01*
X334848800Y-107199600D02*
X334848800Y-108200100D01*
X111524000Y-87243800D02*
X110723200Y-87243800D01*
X51955400Y-174249400D02*
X51154800Y-174249400D01*
X146959800Y-163900300D02*
X146316800Y-166932000D01*
X274992800Y-155199300D02*
X274992800Y-158299900D01*
X111524000Y-90344800D02*
X111524000Y-87243800D01*
X90055300Y-159298900D02*
X104055000Y-159298900D01*
X234644800Y-181842400D02*
X235573800Y-186214900D01*
X295508800Y-127250100D02*
X295508800Y-126249600D01*
X204386800Y-153104800D02*
X204594800Y-154083100D01*
X233151800Y-182159300D02*
X234644800Y-181842400D01*
X137024800Y-116907700D02*
X137805800Y-117073200D01*
X121478700Y-122702500D02*
X121270900Y-123681100D01*
X240462800Y-107508300D02*
X254155800Y-104597900D01*
X136616800Y-184346300D02*
X136408800Y-185324700D01*
X271513800Y-90786800D02*
X270870800Y-87753800D01*
X216229800Y-141489300D02*
X217012800Y-141323800D01*
X354613800Y-130950000D02*
X353789800Y-130950000D01*
X240290800Y-175938800D02*
X239617800Y-172780400D01*
X272135800Y-107246600D02*
X272135800Y-110347100D01*
X308843800Y-158299900D02*
X309642800Y-158299900D01*
X74624100Y-146770000D02*
X74624100Y-150000000D01*
D11*
X98459833Y-180872799D02*
G75*
G02*
X98875654Y-180916513I-33J-1999901D01*
G01*
D10*
X318000800Y-101918900D02*
X319724800Y-101918900D01*
X83539900Y-127250100D02*
X83539900Y-130347900D01*
X136468800Y-94143800D02*
X135825800Y-97176800D01*
X152805800Y-175519900D02*
X153013800Y-174541500D01*
X325834800Y-117099300D02*
X325035800Y-117099300D01*
X72623200Y-88149800D02*
X58623700Y-88149800D01*
X128484800Y-178835500D02*
X129290800Y-179006400D01*
X82587700Y-120199800D02*
X83388500Y-120199800D01*
X83388500Y-107199600D02*
X83388500Y-108200100D01*
X51154800Y-168447900D02*
X51955400Y-168447900D01*
X104558000Y-106837000D02*
X103912800Y-109868800D01*
X98340300Y-140248900D02*
X98340300Y-139249900D01*
X218799800Y-185823500D02*
X219444800Y-188856580D01*
X354613800Y-133749000D02*
X354613800Y-130950000D01*
X269556800Y-158728500D02*
X270339800Y-158562000D01*
X319724800Y-101918900D02*
X319724800Y-102900000D01*
X258888800Y-102569400D02*
X259096800Y-103547700D01*
X129608800Y-105977300D02*
X129816800Y-104998700D01*
X209736800Y-179131800D02*
X210407800Y-182291600D01*
X135400800Y-103015700D02*
X134619800Y-102850600D01*
X240254800Y-106529700D02*
X240462800Y-107508300D01*
X254085800Y-100421000D02*
X253304800Y-100587900D01*
X312499800Y-89149800D02*
X311700800Y-89149800D01*
X104695600Y-110037000D02*
X103489800Y-115709000D01*
X250279800Y-159657300D02*
X249072800Y-153984000D01*
X348847800Y-121198900D02*
X348847800Y-120199800D01*
X258244800Y-99537700D02*
X257460800Y-99703100D01*
X323238800Y-130950000D02*
X322414800Y-130950000D01*
X72945600Y-139249900D02*
X72945600Y-136149300D01*
X123974800Y-110964500D02*
X123191700Y-110799000D01*
X218080800Y-150194400D02*
X218863800Y-150029000D01*
X173091800Y-105098100D02*
X173875800Y-105264700D01*
X241096800Y-175768000D02*
X240290800Y-175938800D01*
X171885800Y-110771500D02*
X171242800Y-113804300D01*
X275792800Y-158299900D02*
X275792800Y-159298900D01*
X346429800Y-155199300D02*
X346429800Y-158299900D01*
X338657800Y-177348600D02*
X338657800Y-178349100D01*
X272135800Y-119246300D02*
X272934800Y-119246300D01*
X132519800Y-92283800D02*
X118826100Y-89371800D01*
X209612800Y-120251000D02*
X208829800Y-120417900D01*
X96723900Y-86243800D02*
X96723900Y-87243800D01*
X215893800Y-156844600D02*
X216101800Y-157823300D01*
X103912800Y-109868800D02*
X104695600Y-110037000D01*
X268009800Y-120106400D02*
X267364800Y-117074600D01*
X110723200Y-90344800D02*
X111524000Y-90344800D01*
X253740800Y-124161900D02*
X267433800Y-121251500D01*
X130599800Y-105165500D02*
X131244800Y-102133800D01*
X273716800Y-178293900D02*
X274498800Y-178127200D01*
X241679800Y-178507500D02*
X241096800Y-175768000D01*
X81373800Y-152799000D02*
X82199300Y-152799000D01*
X334047800Y-117099300D02*
X334047800Y-120199800D01*
X267707800Y-150023300D02*
X268488800Y-149856800D01*
X324750800Y-92849800D02*
X324750800Y-89619800D01*
X158608800Y-127425100D02*
X157963800Y-130456900D01*
X251037800Y-111446700D02*
X250254800Y-111612200D01*
X280708800Y-130347900D02*
X281507800Y-130347900D01*
X57346300Y-127250100D02*
X57346300Y-130347900D01*
X135833800Y-184180900D02*
X136616800Y-184346300D01*
X240871800Y-178678400D02*
X241679800Y-178507500D01*
X222238800Y-149311100D02*
X223020800Y-149144200D01*
D11*
X25670041Y-85717799D02*
G75*
G02*
X27670041Y-83717801I2000029J-31D01*
G01*
D10*
X252586800Y-150068800D02*
X253229800Y-153100600D01*
X50822700Y-150000000D02*
X50000000Y-150000000D01*
X273336800Y-135279700D02*
X272131800Y-129607700D01*
X72945600Y-127250100D02*
X72146600Y-127250100D01*
X140080800Y-133863300D02*
X139297800Y-133697800D01*
X321036800Y-146300100D02*
X320235800Y-146300100D01*
X169578800Y-101183000D02*
X169787800Y-100204800D01*
X116123800Y-102088200D02*
X115915700Y-103066800D01*
X159979800Y-185530000D02*
X160562800Y-182791800D01*
X122546900Y-113830800D02*
X123330700Y-113995900D01*
X122901000Y-143502600D02*
X136595800Y-146413000D01*
X106186800Y-126658900D02*
X105543300Y-129692000D01*
X105340500Y-107003800D02*
X104558000Y-106837000D01*
X291185800Y-120199800D02*
X291984800Y-120199800D01*
X104055000Y-145299600D02*
X90055300Y-145299600D01*
X272934800Y-120246800D02*
X286935800Y-120246800D01*
X196847800Y-135233100D02*
X197631800Y-135066300D01*
X151898800Y-187114700D02*
X153586800Y-187473100D01*
X185718800Y-116881600D02*
X186501800Y-117047100D01*
X264523800Y-107557700D02*
X250829800Y-110466700D01*
X72623200Y-102148900D02*
X72623200Y-101149900D01*
X134757800Y-106048900D02*
X134549800Y-107027100D01*
X253159800Y-148923700D02*
X253367800Y-149900900D01*
X59099100Y-149397900D02*
X59099100Y-150000000D01*
X248428800Y-150950800D02*
X248220800Y-149973900D01*
X232611800Y-94864800D02*
X218918800Y-97774800D01*
X76873100Y-98048800D02*
X76873100Y-101149900D01*
X234058800Y-182581000D02*
X233277800Y-182746400D01*
X255863800Y-161638900D02*
X256071800Y-162617500D01*
X143593800Y-137779500D02*
X142387800Y-143452800D01*
D11*
X278464428Y-180916503D02*
G75*
G02*
X278880248Y-180872809I415772J-1956297D01*
G01*
D10*
X73422600Y-92248800D02*
X73422600Y-89149800D01*
X325035800Y-117099300D02*
X325035800Y-111299300D01*
X338657800Y-165348600D02*
X337858800Y-165348600D01*
X219458800Y-185069800D02*
X219582800Y-185656800D01*
X251245800Y-90902800D02*
X237552800Y-93814800D01*
X66755400Y-174249400D02*
X65955000Y-174249400D01*
X271866800Y-169588800D02*
X272647800Y-169422100D01*
X214184800Y-191762870D02*
X217412800Y-191076610D01*
X239617800Y-172780400D02*
X237931800Y-173140000D01*
X174852800Y-153522200D02*
X175497800Y-150490800D01*
X314558800Y-126249600D02*
X300557800Y-126249600D01*
X156144800Y-175442800D02*
X154456800Y-175083100D01*
X157963800Y-130456900D02*
X158747800Y-130623400D01*
X257037800Y-93863800D02*
X258244800Y-99537700D01*
X309642800Y-146300100D02*
X308843800Y-146300100D01*
X257526800Y-169467600D02*
X256745800Y-169632900D01*
X311034800Y-107199600D02*
X311034800Y-108200100D01*
X239803800Y-136478800D02*
X241009800Y-142150700D01*
X233015800Y-174183200D02*
X233686800Y-177343100D01*
X76349600Y-160050000D02*
X79649800Y-160050000D01*
X51955400Y-164348200D02*
X51955400Y-165348600D01*
X180589800Y-193693520D02*
X181372800Y-193858860D01*
X174070800Y-153357100D02*
X174852800Y-153522200D01*
X292650800Y-100244600D02*
X292650800Y-99244100D01*
X144654800Y-154312100D02*
X144862800Y-153333400D01*
X55849700Y-146770000D02*
X55849700Y-145847900D01*
X325474800Y-98048800D02*
X325474800Y-101149900D01*
X105548600Y-106025600D02*
X105340500Y-107003800D01*
X104877600Y-169475900D02*
X105659000Y-169641200D01*
X128256800Y-164116700D02*
X141950800Y-167027100D01*
X156622800Y-189059150D02*
X156815800Y-188159300D01*
X248591800Y-124233500D02*
X249375800Y-124066700D01*
X55849700Y-160050000D02*
X55849700Y-159068900D01*
X290592800Y-158299900D02*
X290592800Y-155199300D01*
X132863800Y-170492800D02*
X131177800Y-170135900D01*
X236977800Y-94959800D02*
X237620800Y-97991800D01*
X119353900Y-172553000D02*
X120136700Y-172718400D01*
X155240800Y-101304400D02*
X154034800Y-106977700D01*
X58299900Y-146300100D02*
X58299900Y-149397900D01*
X300557800Y-139249900D02*
X300557800Y-140248900D01*
X83388500Y-111299300D02*
X83388500Y-117099300D01*
X166376800Y-168027600D02*
X165593800Y-167860800D01*
X137667800Y-113874900D02*
X137875800Y-112897700D01*
X182703800Y-162399500D02*
X181920800Y-162233000D01*
X74374700Y-117099300D02*
X73575300Y-117099300D01*
X197467800Y-161783500D02*
X196684800Y-161950400D01*
X163078800Y-137730100D02*
X162870800Y-138706900D01*
X296899800Y-89149800D02*
X296899800Y-92248800D01*
X118286000Y-181424800D02*
X118930900Y-178391800D01*
X230440800Y-157944600D02*
X231221800Y-157779200D01*
X95923100Y-90344800D02*
X96723900Y-90344800D01*
X200284800Y-101736900D02*
X200492800Y-102714100D01*
X121445800Y-129902700D02*
X120664400Y-129736100D01*
X257460800Y-99703100D02*
X258105800Y-102735900D01*
X289793800Y-145299600D02*
X275792800Y-145299600D01*
X286935800Y-116145700D02*
X286935800Y-110347100D01*
X195779800Y-126359700D02*
X196985800Y-132033100D01*
X335035800Y-158299900D02*
X335836800Y-158299900D01*
X277849800Y-87243800D02*
X277849800Y-90344800D01*
X281507800Y-127250100D02*
X280708800Y-127250100D01*
X218803800Y-170539700D02*
X232497800Y-167627900D01*
X89254900Y-146300100D02*
X89254900Y-149397900D01*
X300557800Y-140248900D02*
X314558800Y-140248900D01*
X237261800Y-185856600D02*
X237463800Y-186815700D01*
X180071800Y-170938000D02*
X181277800Y-165265900D01*
X272934800Y-116145700D02*
X272135800Y-116145700D01*
X155656800Y-120868400D02*
X156439800Y-121035200D01*
X154457800Y-101137500D02*
X155240800Y-101304400D01*
X291185800Y-117099300D02*
X291185800Y-120199800D01*
X215377800Y-137477800D02*
X201684800Y-140389700D01*
X134549800Y-107027100D02*
X148242800Y-109937500D01*
X104855400Y-146300100D02*
X104055000Y-146300100D01*
X232854800Y-176907600D02*
X232209800Y-173874600D01*
X58146900Y-127250100D02*
X57346300Y-127250100D01*
X164950800Y-170893900D02*
X165731800Y-171059200D01*
X310235800Y-108200100D02*
X310235800Y-111299300D01*
X151084800Y-100421000D02*
X151727800Y-97387800D01*
X296899800Y-92248800D02*
X297700800Y-92248800D01*
X233471800Y-124279000D02*
X234116800Y-127310800D01*
X334848800Y-108200100D02*
X334047800Y-108200100D01*
X256745800Y-169632900D02*
X257388800Y-172666000D01*
X166113800Y-190616340D02*
X166896800Y-190781730D01*
X135956800Y-125779700D02*
X136599800Y-122748000D01*
X232209800Y-173874600D02*
X231426800Y-174041300D01*
X305985800Y-120199800D02*
X306784800Y-120199800D01*
X215317800Y-157989800D02*
X215962800Y-161021500D01*
X73098700Y-145299600D02*
X59099100Y-145299600D01*
X248220800Y-149973900D02*
X234527800Y-152884400D01*
X167084800Y-112919900D02*
X167867800Y-113086400D01*
X133067800Y-169535100D02*
X132863800Y-170492800D01*
X92472600Y-101149900D02*
X92472600Y-98048800D01*
X201560800Y-111585700D02*
X202204800Y-114618900D01*
X253367800Y-149900900D02*
X252586800Y-150068800D01*
X140757800Y-123629900D02*
X139974800Y-123464500D01*
X323238800Y-133749000D02*
X323238800Y-140018900D01*
X275792800Y-159298900D02*
X289793800Y-159298900D01*
X180852800Y-171104700D02*
X180071800Y-170938000D01*
X270732800Y-90953800D02*
X271513800Y-90786800D01*
X239609800Y-103498300D02*
X238826800Y-103664800D01*
X77672500Y-88149800D02*
X77672500Y-89149800D01*
X245889800Y-111516900D02*
X232195800Y-114428800D01*
X131244800Y-102133800D02*
X130461800Y-101965800D01*
X129290800Y-179006400D02*
X128619800Y-182166200D01*
X296307800Y-139249900D02*
X296307800Y-136149300D01*
X180209800Y-174136400D02*
X180852800Y-171104700D01*
X335035800Y-149397900D02*
X335836800Y-149397900D01*
X252887800Y-120151900D02*
X252105800Y-120317000D01*
X343524800Y-88698800D02*
X343524800Y-89619800D01*
X259377800Y-178172700D02*
X258594800Y-178339400D01*
X272719800Y-96460800D02*
X271938800Y-96625800D01*
X272135800Y-116145700D02*
X272135800Y-119246300D01*
X83388500Y-108200100D02*
X82587700Y-108200100D01*
X136478800Y-181147900D02*
X135833800Y-184180900D01*
X151737800Y-184391800D02*
X150954800Y-184225000D01*
X234247800Y-98707900D02*
X233602800Y-95676800D01*
X306784800Y-111299300D02*
X306784800Y-108200100D01*
X346825800Y-102900000D02*
X346825800Y-101918900D01*
X73422600Y-101149900D02*
X73422600Y-98048800D01*
X158502800Y-188518970D02*
X159173800Y-185357800D01*
X170361800Y-101349900D02*
X169578800Y-101183000D01*
X129065800Y-176096000D02*
X128484800Y-178835500D01*
X362030800Y-155199300D02*
X361229800Y-155199300D01*
X331513800Y-139249900D02*
X331513800Y-140248900D01*
X217464800Y-111375100D02*
X216819800Y-108341900D01*
X237739800Y-172238800D02*
X234512800Y-172925100D01*
X74624100Y-150000000D02*
X73098700Y-150000000D01*
X50822700Y-152799000D02*
X50822700Y-159068900D01*
X306784800Y-117099300D02*
X305985800Y-117099300D01*
X291185800Y-108200100D02*
X291185800Y-111299300D01*
X84340700Y-136149300D02*
X83539900Y-136149300D01*
X149593800Y-155361900D02*
X148810800Y-155194000D01*
X240871800Y-145350400D02*
X241654800Y-145183900D01*
X169787800Y-100204800D02*
X156093800Y-97292800D01*
X168227800Y-159322600D02*
X167444800Y-159155700D01*
X271487800Y-126574900D02*
X271279800Y-125596300D01*
X334047800Y-108200100D02*
X334047800Y-111299300D01*
X236922800Y-147212400D02*
X236714800Y-146233800D01*
X294842800Y-158299900D02*
X294842800Y-159298900D01*
X123109200Y-142524300D02*
X122901000Y-143502600D01*
X258860800Y-138357000D02*
X259505800Y-141390200D01*
X98340300Y-127250100D02*
X98340300Y-126249600D01*
X223020800Y-149144200D02*
X223227800Y-150124200D01*
X52549300Y-145847900D02*
X52549300Y-146770000D01*
X58623700Y-98048800D02*
X57823100Y-98048800D01*
X328264800Y-126797900D02*
X324963800Y-126797900D01*
X58775300Y-117099300D02*
X58775300Y-120199800D01*
X153395800Y-188372900D02*
X156622800Y-189059150D01*
X275792800Y-155199300D02*
X274992800Y-155199300D01*
X173861800Y-154333900D02*
X174070800Y-153357100D01*
X72146600Y-130347900D02*
X72945600Y-130347900D01*
X292650800Y-86243800D02*
X278650800Y-86243800D01*
X216101800Y-157823300D02*
X215317800Y-157989800D01*
X257009800Y-129651800D02*
X257654800Y-132685000D01*
X237620800Y-97991800D02*
X238403800Y-97824800D01*
X83539900Y-130347900D02*
X84340700Y-130347900D01*
X124175800Y-133652300D02*
X124959800Y-133817800D01*
X120872600Y-128758900D02*
X107178800Y-125845700D01*
X187569800Y-108175100D02*
X188350800Y-108341900D01*
X73575300Y-121198900D02*
X73575300Y-120199800D01*
X326275800Y-98048800D02*
X325474800Y-98048800D01*
X73575300Y-117099300D02*
X73575300Y-111299300D01*
X84340700Y-139249900D02*
X84340700Y-140248900D01*
X73098700Y-155199300D02*
X73098700Y-154598500D01*
X218219800Y-146995800D02*
X217435800Y-147162700D01*
X264731800Y-108534900D02*
X264523800Y-107557700D01*
X124821800Y-130620600D02*
X124175800Y-133652300D01*
X235379800Y-156894400D02*
X236584800Y-162567800D01*
X260288800Y-141223300D02*
X260496800Y-142201900D01*
X155233800Y-126707200D02*
X154450800Y-126541700D01*
X111524000Y-99244100D02*
X111524000Y-96144800D01*
X338657800Y-168447900D02*
X338657800Y-174249400D01*
X121341100Y-119504200D02*
X120697600Y-122535600D01*
X321036800Y-145299600D02*
X321036800Y-146300100D01*
X118618000Y-90349800D02*
X117835200Y-90184800D01*
X347230800Y-155199300D02*
X346429800Y-155199300D01*
X311034800Y-120199800D02*
X311034800Y-121198900D01*
X58623700Y-92248800D02*
X58623700Y-98048800D01*
X345514800Y-127250100D02*
X345514800Y-126249600D01*
X352658800Y-168447900D02*
X353457800Y-168447900D01*
X137875800Y-112897700D02*
X124182800Y-109985900D01*
X286935800Y-110347100D02*
X287734800Y-110347100D01*
X199961800Y-173521800D02*
X200170800Y-174498800D01*
X272268800Y-126408000D02*
X271487800Y-126574900D01*
X109693800Y-155979300D02*
X109048900Y-159011100D01*
X203194800Y-115430600D02*
X216888800Y-112518800D01*
X194998800Y-126526600D02*
X195779800Y-126359700D01*
X297700800Y-88149800D02*
X297700800Y-89149800D01*
X362030800Y-149397900D02*
X362030800Y-146300100D01*
X294043800Y-155199300D02*
X294043800Y-158299900D01*
X176565800Y-141618800D02*
X176773800Y-140640500D01*
X89254900Y-155199300D02*
X89254900Y-158299900D01*
X167444800Y-159155700D02*
X166799800Y-162187500D01*
X137805800Y-117073200D02*
X138450800Y-114041400D01*
X345514800Y-126249600D02*
X331513800Y-126249600D01*
X57823100Y-92248800D02*
X58623700Y-92248800D01*
X213011800Y-167578300D02*
X211806800Y-161904900D01*
X273853800Y-175095500D02*
X273072800Y-175260900D01*
X337858800Y-168447900D02*
X338657800Y-168447900D01*
X103027000Y-178180900D02*
X103809800Y-178346300D01*
X166896800Y-190781730D02*
X166687800Y-191760120D01*
X119034300Y-109914300D02*
X119242400Y-108936000D01*
X109048900Y-159011100D02*
X109831700Y-159177900D01*
X232264800Y-118605600D02*
X233048800Y-118438800D01*
X124952800Y-159222000D02*
X124169800Y-159056600D01*
X258594800Y-178339400D02*
X259239800Y-181371100D01*
X349374800Y-92849800D02*
X348550800Y-92849800D01*
X59576000Y-107199600D02*
X59576000Y-108200100D01*
X272913800Y-129439800D02*
X272268800Y-126408000D01*
X267225800Y-120272900D02*
X268009800Y-120106400D01*
X161575800Y-170175900D02*
X162220800Y-167142800D01*
X59099100Y-155199300D02*
X58299900Y-155199300D01*
X124307800Y-162254800D02*
X124952800Y-159222000D01*
X59099100Y-159298900D02*
X73098700Y-159298900D01*
D11*
X27670041Y-83717799D02*
X361752541Y-83717799D01*
D10*
X348763800Y-127720000D02*
X347038800Y-127720000D01*
X140959800Y-146317800D02*
X141742800Y-146486000D01*
X134619800Y-102850600D02*
X133974800Y-105882000D01*
X120780200Y-169686700D02*
X119998700Y-169520000D01*
X348763800Y-140018900D02*
X348763800Y-141000000D01*
X110899600Y-150305900D02*
X111681000Y-150472800D01*
X211161800Y-158873100D02*
X210953800Y-157894900D01*
X331513800Y-135549900D02*
X331513800Y-136149300D01*
X59099100Y-146300100D02*
X58299900Y-146300100D01*
X110723200Y-100244600D02*
X110723200Y-99244100D01*
X268913800Y-155696700D02*
X267707800Y-150023300D01*
X175717800Y-121963700D02*
X174935800Y-121795800D01*
X232289800Y-166650900D02*
X233072800Y-166482800D01*
X73575300Y-108200100D02*
X73575300Y-107199600D01*
X346313800Y-130347900D02*
X346313800Y-127250100D01*
X136850800Y-175909900D02*
X137779800Y-171538800D01*
X273923800Y-179272400D02*
X273716800Y-178293900D01*
X59099100Y-158299900D02*
X59099100Y-159298900D01*
X216819800Y-108341900D02*
X216036800Y-108508800D01*
X203603800Y-153271400D02*
X204386800Y-153104800D01*
X103601600Y-179326100D02*
X117295100Y-182235100D01*
X119242400Y-108936000D02*
X105548600Y-106025600D01*
X59576000Y-111299300D02*
X59576000Y-117099300D01*
X102638200Y-119719000D02*
X116332000Y-122630800D01*
X277849800Y-99244100D02*
X278650800Y-99244100D01*
X210990800Y-185029800D02*
X212292800Y-191163430D01*
X123317000Y-163066600D02*
X123525100Y-162088300D01*
X76873100Y-92248800D02*
X77672500Y-92248800D01*
X347038800Y-135549900D02*
X347038800Y-140018900D01*
X293449800Y-99244100D02*
X293449800Y-96144800D01*
X236851800Y-143035500D02*
X236070800Y-143201000D01*
X104855400Y-155199300D02*
X104055000Y-155199300D01*
X160459800Y-118719900D02*
X159815800Y-121751700D01*
X347038800Y-127720000D02*
X347038800Y-130950000D01*
X153183800Y-110987800D02*
X166876800Y-113898200D01*
X163286800Y-158272300D02*
X163494800Y-157294100D01*
X340275800Y-102148900D02*
X340275800Y-101149900D01*
X326275800Y-92248800D02*
X326275800Y-92849800D01*
X135173800Y-125612900D02*
X135956800Y-125779700D01*
X174290800Y-124828600D02*
X175074800Y-124995500D01*
X234897800Y-127143900D02*
X235105800Y-128122200D01*
X240488800Y-185170300D02*
X242175800Y-184812100D01*
X324963800Y-141000000D02*
X328264800Y-141000000D01*
X289793800Y-155199300D02*
X289793800Y-149397900D01*
X200170800Y-174498800D02*
X213863800Y-171589800D01*
X208621800Y-119439300D02*
X194928800Y-122349700D01*
X198112800Y-164816700D02*
X199318800Y-170488700D01*
X176773800Y-140640500D02*
X163078800Y-137730100D01*
X352064800Y-126797900D02*
X348763800Y-126797900D01*
X211806800Y-161904900D02*
X212587800Y-161739400D01*
X346429800Y-149397900D02*
X347230800Y-149397900D01*
X348763800Y-126797900D02*
X348763800Y-127720000D01*
X138465800Y-175641200D02*
X138341800Y-176226900D01*
X234597800Y-157061200D02*
X235379800Y-156894400D01*
X159575800Y-175169900D02*
X156348800Y-174483600D01*
X57573700Y-146770000D02*
X55849700Y-146770000D01*
X210680800Y-129122700D02*
X209474800Y-123449300D01*
X182440800Y-184987100D02*
X183222800Y-185153800D01*
X196204800Y-132199900D02*
X196847800Y-135233100D01*
X297700800Y-89149800D02*
X296899800Y-89149800D01*
X118168900Y-141474100D02*
X118951400Y-141641000D01*
X91673200Y-101149900D02*
X92472600Y-101149900D01*
X240226800Y-142319000D02*
X240871800Y-145350400D01*
X211422800Y-178773500D02*
X209736800Y-179131800D01*
X238377800Y-133612500D02*
X239021800Y-136645600D01*
X323238800Y-127720000D02*
X323238800Y-130950000D01*
X98188600Y-108200100D02*
X97387800Y-108200100D01*
X98188600Y-120199800D02*
X98188600Y-117099300D01*
X348550800Y-89619800D02*
X346825800Y-89619800D01*
X162225800Y-141740100D02*
X161021800Y-147413500D01*
X300557800Y-130347900D02*
X300557800Y-136149300D01*
X59576000Y-121198900D02*
X73575300Y-121198900D01*
X281507800Y-139249900D02*
X281507800Y-140248900D01*
X79649800Y-146770000D02*
X79649800Y-145847900D01*
X171815800Y-114948400D02*
X185510800Y-117860200D01*
X58623700Y-101149900D02*
X58623700Y-102148900D01*
X340275800Y-101149900D02*
X341074800Y-101149900D01*
X210953800Y-157894900D02*
X197259800Y-160805300D01*
X259505800Y-141390200D02*
X260288800Y-141223300D01*
X233686800Y-177343100D02*
X232195800Y-177660000D01*
X217813800Y-169728100D02*
X218595800Y-169559900D01*
X167539800Y-187750000D02*
X166758800Y-187584700D01*
X90055300Y-146300100D02*
X89254900Y-146300100D01*
X155885800Y-98270800D02*
X155102800Y-98105800D01*
X346429800Y-158299900D02*
X347230800Y-158299900D01*
X232071800Y-177073000D02*
X232854800Y-176907600D01*
X72623200Y-101149900D02*
X73422600Y-101149900D01*
X220387800Y-140605900D02*
X221169800Y-140439100D01*
X153599800Y-130551800D02*
X153807800Y-129573500D01*
X215613800Y-102670000D02*
X214968800Y-99636800D01*
X271013800Y-165578800D02*
X257318800Y-168489200D01*
X161241800Y-118886800D02*
X160459800Y-118719900D01*
X197328800Y-164982100D02*
X198112800Y-164816700D01*
X72623200Y-98048800D02*
X72623200Y-92248800D01*
X117185000Y-118620800D02*
X118390800Y-112946000D01*
X337858800Y-177348600D02*
X338657800Y-177348600D01*
X308843800Y-146300100D02*
X308843800Y-145299600D01*
X292650800Y-96144800D02*
X292650800Y-90344800D01*
X142387800Y-143452800D02*
X141603800Y-143286300D01*
X352064800Y-141000000D02*
X352064800Y-140018900D01*
X159371800Y-176129000D02*
X159575800Y-175169900D01*
X98188600Y-117099300D02*
X97387800Y-117099300D01*
X236070800Y-143201000D02*
X234863800Y-137528600D01*
X353457800Y-165348600D02*
X352658800Y-165348600D01*
X345514800Y-140248900D02*
X345514800Y-139249900D01*
X238826800Y-103664800D02*
X239471800Y-106696600D01*
X136092800Y-171179100D02*
X136296800Y-170221400D01*
X329989800Y-127720000D02*
X328264800Y-127720000D01*
X274764800Y-138146000D02*
X274119800Y-135114600D01*
X235453800Y-104381300D02*
X234670800Y-104548200D01*
X328264800Y-141000000D02*
X328264800Y-140018900D01*
X110723200Y-99244100D02*
X111524000Y-99244100D01*
X273072800Y-175260900D02*
X271866800Y-169588800D01*
X218502800Y-180571800D02*
X217009800Y-180888800D01*
X110723200Y-86243800D02*
X96723900Y-86243800D01*
X325834800Y-120199800D02*
X325834800Y-117099300D01*
X202960800Y-150239900D02*
X203603800Y-153271400D01*
X182058800Y-165431300D02*
X182703800Y-162399500D01*
X232497800Y-167627900D02*
X232289800Y-166650900D01*
X217435800Y-147162700D02*
X216229800Y-141489300D01*
X352658800Y-177348600D02*
X353457800Y-177348600D01*
X295508800Y-139249900D02*
X296307800Y-139249900D01*
X216265800Y-131105600D02*
X216472800Y-132082800D01*
X217412800Y-191076610D02*
X217208800Y-190118890D01*
X59099100Y-154598500D02*
X59099100Y-155199300D01*
X272131800Y-129607700D02*
X272913800Y-129439800D01*
X233920800Y-185779400D02*
X234703800Y-185612700D01*
X267433800Y-121251500D02*
X267225800Y-120272900D01*
X254704800Y-139241700D02*
X253497800Y-133567000D01*
X271279800Y-125596300D02*
X257584800Y-128506700D01*
X325834800Y-111299300D02*
X325834800Y-108200100D01*
X252881800Y-94747800D02*
X252236800Y-91715800D01*
X103692300Y-138396800D02*
X104475100Y-138563700D01*
X57573700Y-150000000D02*
X57573700Y-146770000D01*
X156815800Y-188159300D02*
X158502800Y-188518970D01*
X104453200Y-175314600D02*
X103671800Y-175147900D01*
X353457800Y-177348600D02*
X353457800Y-174249400D01*
X59099100Y-145299600D02*
X59099100Y-146300100D01*
X334848800Y-111299300D02*
X334848800Y-117099300D01*
X305985800Y-121198900D02*
X305985800Y-120199800D01*
X139318800Y-171629700D02*
X139110800Y-172608100D01*
X293449800Y-90344800D02*
X293449800Y-87243800D01*
X165593800Y-167860800D02*
X164950800Y-170893900D01*
X104855400Y-158299900D02*
X104855400Y-155199300D01*
X231620800Y-115573900D02*
X232264800Y-118605600D01*
X341800800Y-89619800D02*
X341800800Y-92849800D01*
X217524800Y-175973300D02*
X217731800Y-176951700D01*
X291984800Y-117099300D02*
X291185800Y-117099300D01*
X306784800Y-120199800D02*
X306784800Y-117099300D01*
X126020800Y-150350000D02*
X126228800Y-149373200D01*
X115915700Y-103066800D02*
X129608800Y-105977300D01*
X326275800Y-101149900D02*
X326275800Y-102148900D01*
X73899200Y-158299900D02*
X73899200Y-155199300D01*
X272004800Y-166390400D02*
X271221800Y-166555800D01*
X346825800Y-101918900D02*
X348550800Y-101918900D01*
X291984800Y-111299300D02*
X291984800Y-117099300D01*
X251453800Y-91882800D02*
X251245800Y-90902800D01*
X218896800Y-189760580D02*
X217965800Y-185388100D01*
X150101800Y-188235100D02*
X150309800Y-187258100D01*
X156509800Y-116856900D02*
X142816800Y-113947900D01*
X201108800Y-141534800D02*
X201753800Y-144566600D01*
X155436800Y-149395000D02*
X156218800Y-149561900D01*
X198535800Y-170655500D02*
X199180800Y-173688500D01*
X257388800Y-172666000D02*
X258171800Y-172499300D01*
X305985800Y-117099300D02*
X305985800Y-111299300D01*
X134965800Y-126590100D02*
X135173800Y-125612900D01*
X122971300Y-139325700D02*
X122326400Y-142357500D01*
X181277800Y-165265900D02*
X182058800Y-165431300D01*
X119596600Y-138607800D02*
X118813800Y-138442300D01*
X181372800Y-193858860D02*
X182017800Y-190825820D01*
X291984800Y-121198900D02*
X305985800Y-121198900D01*
X158539800Y-131602000D02*
X172233800Y-134512400D01*
X73098700Y-150000000D02*
X73098700Y-149397900D01*
X52549300Y-160050000D02*
X55849700Y-160050000D01*
X325035800Y-120199800D02*
X325834800Y-120199800D01*
X323024800Y-102900000D02*
X323024800Y-101918900D01*
X137447800Y-142403000D02*
X138652800Y-136729600D01*
X230096800Y-124995500D02*
X229314800Y-125162400D01*
X188212800Y-105143600D02*
X188420800Y-104165000D01*
X257318800Y-168489200D02*
X257526800Y-169467600D01*
X324750800Y-89619800D02*
X323024800Y-89619800D01*
X73575300Y-111299300D02*
X74374700Y-111299300D01*
X214413800Y-122399400D02*
X215620800Y-128074200D01*
X348847800Y-107199600D02*
X334848800Y-107199600D01*
X104055000Y-149397900D02*
X104855400Y-149397900D01*
X318000800Y-95648800D02*
X318000800Y-101918900D01*
X142810800Y-137613000D02*
X143593800Y-137779500D01*
X352658800Y-165348600D02*
X352658800Y-164348200D01*
X120664400Y-129736100D02*
X120872600Y-128758900D01*
X156862800Y-146528700D02*
X156080800Y-146363300D01*
X132312800Y-93261800D02*
X132519800Y-92283800D01*
X337858800Y-174249400D02*
X337858800Y-177348600D01*
X153527800Y-179455600D02*
X152035800Y-179138700D01*
X341800800Y-97449800D02*
X341800800Y-101918900D01*
X281507800Y-136149300D02*
X280708800Y-136149300D01*
X135818800Y-122579700D02*
X137024800Y-116907700D01*
X57823100Y-101149900D02*
X58623700Y-101149900D01*
X139435800Y-136895100D02*
X140080800Y-133863300D01*
X201892800Y-141367900D02*
X201108800Y-141534800D01*
X98340300Y-136149300D02*
X98340300Y-130347900D01*
X141603800Y-143286300D02*
X140959800Y-146317800D01*
X144444800Y-133769500D02*
X144236800Y-134748100D01*
X255080800Y-161805800D02*
X255863800Y-161638900D01*
X57573700Y-154598500D02*
X59099100Y-154598500D01*
X272581800Y-99659000D02*
X273364800Y-99492200D01*
X84340700Y-140248900D02*
X98340300Y-140248900D01*
X51955400Y-177348600D02*
X51955400Y-178349100D01*
X347230800Y-146300100D02*
X346429800Y-146300100D01*
X139329800Y-126496200D02*
X140112800Y-126663100D01*
X325035800Y-121198900D02*
X325035800Y-120199800D01*
X129816800Y-104998700D02*
X130599800Y-105165500D01*
X51955400Y-165348600D02*
X51154800Y-165348600D01*
X104855400Y-149397900D02*
X104855400Y-146300100D01*
X250924800Y-162689100D02*
X251705800Y-162523700D01*
X162643800Y-161304100D02*
X163424800Y-161471000D01*
X156218800Y-149561900D02*
X156862800Y-146528700D01*
X73098700Y-159298900D02*
X73098700Y-158299900D01*
X296307800Y-127250100D02*
X295508800Y-127250100D01*
X291984800Y-107199600D02*
X291984800Y-108200100D01*
X294842800Y-149397900D02*
X294842800Y-155199300D01*
X157930800Y-137658500D02*
X158138800Y-136679900D01*
X289793800Y-149397900D02*
X290592800Y-149397900D01*
X328264800Y-127720000D02*
X328264800Y-126797900D01*
X311034800Y-117099300D02*
X310235800Y-117099300D01*
X165523800Y-172037600D02*
X179218800Y-174948000D01*
X216367800Y-138291000D02*
X215586800Y-138457500D01*
X260022800Y-181204300D02*
X260230800Y-182182800D01*
X194928800Y-122349700D02*
X195135800Y-123328300D01*
X174519800Y-102231800D02*
X173736800Y-102066400D01*
X182017800Y-190825820D02*
X181234800Y-190660440D01*
X104337500Y-135365400D02*
X103692300Y-138396800D01*
X158714800Y-137825000D02*
X157930800Y-137658500D01*
X231218800Y-173062900D02*
X217524800Y-175973300D01*
X98340300Y-126249600D02*
X84340700Y-126249600D01*
X274189800Y-139290100D02*
X273981800Y-138312900D01*
X163424800Y-161471000D02*
X164069800Y-158437800D01*
X58299900Y-158299900D02*
X59099100Y-158299900D01*
X272934800Y-110347100D02*
X272934800Y-116145700D01*
X266157800Y-111401200D02*
X265513800Y-108369500D01*
X219770800Y-101785200D02*
X220975800Y-107460000D01*
X215962800Y-161021500D02*
X216744800Y-160855000D01*
X123191700Y-110799000D02*
X122546900Y-113830800D01*
X220837800Y-110657200D02*
X221620800Y-110491800D01*
X294842800Y-146300100D02*
X294043800Y-146300100D01*
X149094800Y-105927500D02*
X150301800Y-100254200D01*
X234011800Y-133518600D02*
X220316800Y-136429000D01*
X352064800Y-127720000D02*
X352064800Y-126797900D01*
X219743800Y-137572700D02*
X220387800Y-140605900D01*
X325834800Y-108200100D02*
X325035800Y-108200100D01*
X254155800Y-104597900D02*
X253947800Y-103619300D01*
X319724800Y-88698800D02*
X319724800Y-89619800D01*
X111524000Y-96144800D02*
X110723200Y-96144800D01*
X326275800Y-97449800D02*
X326275800Y-98048800D01*
X162088800Y-138541800D02*
X161444800Y-141573200D01*
X82587700Y-111299300D02*
X83388500Y-111299300D01*
X281507800Y-140248900D02*
X295508800Y-140248900D01*
X217169800Y-166695000D02*
X217813800Y-169728100D01*
X58146900Y-130347900D02*
X58146900Y-136149300D01*
X296899800Y-98048800D02*
X296899800Y-101149900D01*
X167729800Y-109888200D02*
X168935800Y-104214800D01*
X135894800Y-180410600D02*
X137385800Y-180727600D01*
X142158800Y-166050100D02*
X142941800Y-166215400D01*
X216472800Y-132082800D02*
X230167800Y-129172400D01*
X175497800Y-150490800D02*
X174714800Y-150323900D01*
X329989800Y-130950000D02*
X329989800Y-127720000D01*
X65955000Y-177348600D02*
X66755400Y-177348600D01*
X291984800Y-108200100D02*
X291185800Y-108200100D01*
X152943800Y-178718300D02*
X153586800Y-175685300D01*
X145435800Y-154477200D02*
X144654800Y-154312100D01*
X259643800Y-138191500D02*
X258860800Y-138357000D01*
X280708800Y-136149300D02*
X280708800Y-139249900D01*
X138341800Y-176226900D02*
X136850800Y-175909900D01*
X217009800Y-180888800D02*
X216338800Y-177728900D01*
X253229800Y-153100600D02*
X254012800Y-152933700D01*
X128465800Y-163138200D02*
X128256800Y-164116700D01*
X267061800Y-146991900D02*
X266854800Y-146011900D01*
X79649800Y-145847900D02*
X76349600Y-145847900D01*
X330714800Y-127250100D02*
X330714800Y-130347900D01*
X353457800Y-174249400D02*
X352658800Y-174249400D01*
X335035800Y-159298900D02*
X335035800Y-158299900D01*
X348847800Y-111299300D02*
X349648800Y-111299300D01*
X187144800Y-114015300D02*
X186363800Y-113848400D01*
X212587800Y-161739400D02*
X211943800Y-158706600D01*
X217965800Y-185388100D02*
X219458800Y-185069800D01*
X349374800Y-95648800D02*
X349374800Y-92849800D01*
X296307800Y-136149300D02*
X295508800Y-136149300D01*
X218988800Y-101952100D02*
X219770800Y-101785200D01*
X347038800Y-140018900D02*
X348763800Y-140018900D01*
X116539800Y-121652600D02*
X117322600Y-121817700D01*
X325474800Y-101149900D02*
X326275800Y-101149900D01*
X102707300Y-115543500D02*
X102063500Y-118575300D01*
X91673200Y-102148900D02*
X91673200Y-101149900D01*
X159391800Y-127591600D02*
X158608800Y-127425100D01*
X271221800Y-166555800D02*
X271013800Y-165578800D01*
X55849700Y-159068900D02*
X57573700Y-159068900D01*
X311700800Y-89149800D02*
X311700800Y-88149800D01*
X324750800Y-101918900D02*
X324750800Y-97449800D01*
X325035800Y-111299300D02*
X325834800Y-111299300D01*
X97387800Y-111299300D02*
X98188600Y-111299300D01*
X110476600Y-156144700D02*
X109693800Y-155979300D01*
X295508800Y-130347900D02*
X296307800Y-130347900D01*
X315357800Y-136149300D02*
X314558800Y-136149300D01*
X343524800Y-102900000D02*
X346825800Y-102900000D01*
X73899200Y-146300100D02*
X73098700Y-146300100D01*
X89254900Y-149397900D02*
X90055300Y-149397900D01*
X142803800Y-163016800D02*
X144009800Y-157343500D01*
X163494800Y-157294100D02*
X149801800Y-154383700D01*
X216681800Y-111541600D02*
X217464800Y-111375100D01*
X116768700Y-99056800D02*
X115985900Y-98890000D01*
X73098700Y-158299900D02*
X73899200Y-158299900D01*
X141742800Y-146486000D02*
X141534800Y-147463200D01*
X299758800Y-136149300D02*
X299758800Y-139249900D01*
X323024800Y-88698800D02*
X319724800Y-88698800D01*
D11*
X363752541Y-178872799D02*
G75*
G02*
X361752541Y-180872841I-2000041J-1D01*
G01*
D10*
X129532800Y-154266500D02*
X130314800Y-154431600D01*
X183222800Y-185153800D02*
X183866800Y-182122100D01*
X345514800Y-136149300D02*
X345514800Y-135549900D01*
X277849800Y-96144800D02*
X277849800Y-99244100D01*
X51154800Y-165348600D02*
X51154800Y-168447900D01*
X120697600Y-122535600D02*
X121478700Y-122702500D01*
X214185800Y-99803700D02*
X213978800Y-98825100D01*
X246097800Y-112496600D02*
X245889800Y-111516900D01*
X257654800Y-132685000D02*
X258437800Y-132516700D01*
X213769800Y-119367600D02*
X212987800Y-119533100D01*
X228108800Y-119489000D02*
X228891800Y-119322100D01*
X109623600Y-160154800D02*
X123317000Y-163066600D01*
X195135800Y-123328300D02*
X194353800Y-123494800D01*
X294842800Y-155199300D02*
X294043800Y-155199300D01*
X136408800Y-185324700D02*
X150101800Y-188235100D01*
X297700800Y-98048800D02*
X296899800Y-98048800D01*
X312499800Y-98048800D02*
X311700800Y-98048800D01*
X105521100Y-166442800D02*
X104877600Y-169475900D01*
X210407800Y-182291600D02*
X209601800Y-182463900D01*
X72623200Y-92248800D02*
X73422600Y-92248800D01*
X106325800Y-129858600D02*
X105118600Y-135531900D01*
X188350800Y-108341900D02*
X188995800Y-105308800D01*
X150309800Y-187258100D02*
X151092800Y-187423400D01*
X154588800Y-129740000D02*
X155233800Y-126707200D01*
X143455800Y-134579800D02*
X142810800Y-137613000D01*
X179426800Y-173971000D02*
X180209800Y-174136400D01*
X349648800Y-120199800D02*
X349648800Y-117099300D01*
X254012800Y-152933700D02*
X255218800Y-158607100D01*
X234527800Y-152884400D02*
X234735800Y-153862600D01*
X97387800Y-120199800D02*
X98188600Y-120199800D01*
X95923100Y-96144800D02*
X95923100Y-99244100D01*
X330714800Y-139249900D02*
X331513800Y-139249900D01*
X259096800Y-103547700D02*
X272790800Y-100637300D01*
X65955000Y-174249400D02*
X65955000Y-168447900D01*
X147097800Y-167098700D02*
X146891800Y-168077200D01*
X156348800Y-174483600D02*
X156144800Y-175442800D01*
X183084800Y-181955400D02*
X183293800Y-180977000D01*
X241862800Y-146162200D02*
X255556800Y-143251800D01*
X272135800Y-110347100D02*
X272934800Y-110347100D01*
X269764800Y-159707100D02*
X269556800Y-158728500D01*
X159593800Y-150279800D02*
X160376800Y-150445300D01*
X81373800Y-146770000D02*
X79649800Y-146770000D01*
X188420800Y-104165000D02*
X174727800Y-101254600D01*
X331513800Y-130950000D02*
X329989800Y-130950000D01*
X90055300Y-145299600D02*
X90055300Y-146300100D01*
X143586800Y-163183700D02*
X142803800Y-163016800D01*
X275792800Y-145299600D02*
X275792800Y-146300100D01*
X82587700Y-108200100D02*
X82587700Y-111299300D01*
X258105800Y-102735900D02*
X258888800Y-102569400D01*
X274992800Y-149397900D02*
X275792800Y-149397900D01*
X231221800Y-157779200D02*
X230577800Y-154746000D01*
X312499800Y-101149900D02*
X312499800Y-98048800D01*
X362030800Y-158299900D02*
X362030800Y-155199300D01*
X268488800Y-149856800D02*
X267845800Y-146825000D01*
X66755400Y-165348600D02*
X65955000Y-165348600D01*
X271938800Y-96625800D02*
X270732800Y-90953800D01*
X144792800Y-157508900D02*
X145435800Y-154477200D01*
X311700800Y-88149800D02*
X297700800Y-88149800D01*
X219126800Y-98753400D02*
X218343800Y-98918900D01*
X317175800Y-92849800D02*
X317175800Y-95648800D01*
X150301800Y-100254200D02*
X151084800Y-100421000D01*
X210182800Y-185202100D02*
X210990800Y-185029800D01*
X259239800Y-181371100D02*
X260022800Y-181204300D01*
X102844900Y-118742200D02*
X102638200Y-119719000D01*
X99140800Y-130347900D02*
X99140800Y-127250100D01*
X295508800Y-136149300D02*
X295508800Y-130347900D01*
X159173800Y-185357800D02*
X159979800Y-185530000D01*
X111681000Y-150472800D02*
X110476600Y-156144700D01*
X345514800Y-130950000D02*
X345514800Y-130347900D01*
X130114800Y-183424400D02*
X133343800Y-184112000D01*
X168746800Y-182078000D02*
X167539800Y-187750000D01*
X166876800Y-113898200D02*
X167084800Y-112919900D01*
X231426800Y-174041300D02*
X231218800Y-173062900D01*
X160168800Y-151423500D02*
X173861800Y-154333900D01*
X215481800Y-131271100D02*
X216265800Y-131105600D01*
X234703800Y-185612700D02*
X234058800Y-182581000D01*
X291185800Y-111299300D02*
X291984800Y-111299300D01*
X235002800Y-134330400D02*
X234218800Y-134495800D01*
X104055000Y-159298900D02*
X104055000Y-158299900D01*
X251705800Y-162523700D02*
X251062800Y-159490500D01*
X118813800Y-138442300D02*
X120019600Y-132769000D01*
X181920800Y-162233000D02*
X182128800Y-161254400D01*
X314558800Y-130347900D02*
X315357800Y-130347900D01*
X348550800Y-101918900D02*
X348550800Y-95648800D01*
X229587800Y-153934200D02*
X215893800Y-156844600D01*
X202341800Y-111419200D02*
X201560800Y-111585700D01*
X217012800Y-141323800D02*
X216367800Y-138291000D01*
X255347800Y-142273500D02*
X256130800Y-142108100D01*
X212987800Y-119533100D02*
X213632800Y-122565900D01*
X290592800Y-146300100D02*
X289793800Y-146300100D01*
X347230800Y-159298900D02*
X361229800Y-159298900D01*
X240692800Y-186128100D02*
X240488800Y-185170300D01*
X183866800Y-182122100D02*
X183084800Y-181955400D01*
X325035800Y-107199600D02*
X311034800Y-107199600D01*
X160238800Y-147246600D02*
X159593800Y-150279800D01*
X97387800Y-108200100D02*
X97387800Y-107199600D01*
X58146900Y-126249600D02*
X58146900Y-127250100D01*
X319724800Y-102900000D02*
X323024800Y-102900000D01*
X340275800Y-98048800D02*
X340275800Y-97449800D01*
X76873100Y-89149800D02*
X76873100Y-92248800D01*
X73575300Y-107199600D02*
X59576000Y-107199600D01*
X237229800Y-165600800D02*
X237437800Y-166577900D01*
X321036800Y-159298900D02*
X335035800Y-159298900D01*
X291984800Y-120199800D02*
X291984800Y-121198900D01*
X59576000Y-108200100D02*
X58775300Y-108200100D01*
X321036800Y-158299900D02*
X321036800Y-159298900D01*
X116332000Y-122630800D02*
X116539800Y-121652600D01*
X152160800Y-178551600D02*
X152943800Y-178718300D01*
X300557800Y-126249600D02*
X300557800Y-127250100D01*
X260496800Y-142201900D02*
X274189800Y-139290100D01*
X58299900Y-149397900D02*
X59099100Y-149397900D01*
X120206900Y-168541600D02*
X106512100Y-165631100D01*
X161444800Y-141573200D02*
X162225800Y-141740100D01*
X90055300Y-158299900D02*
X90055300Y-159298900D01*
X82199300Y-152799000D02*
X82199300Y-150000000D01*
X305985800Y-107199600D02*
X291984800Y-107199600D01*
X72146600Y-136149300D02*
X72146600Y-130347900D01*
X320235800Y-149397900D02*
X321036800Y-149397900D01*
X272934800Y-106246100D02*
X272934800Y-107246600D01*
X251682800Y-114478500D02*
X252887800Y-120151900D01*
X201684800Y-140389700D02*
X201892800Y-141367900D01*
X346825800Y-89619800D02*
X346825800Y-88698800D01*
X59099100Y-150000000D02*
X57573700Y-150000000D01*
X278650800Y-86243800D02*
X278650800Y-87243800D01*
X72146600Y-126249600D02*
X58146900Y-126249600D01*
X348847800Y-108200100D02*
X348847800Y-107199600D01*
X72146600Y-127250100D02*
X72146600Y-126249600D01*
X175920800Y-144650500D02*
X176703800Y-144817400D01*
X254280800Y-133401500D02*
X253636800Y-130369700D01*
X181234800Y-190660440D02*
X182440800Y-184987100D01*
X104475100Y-138563700D02*
X104267000Y-139540900D01*
X83539900Y-136149300D02*
X83539900Y-139249900D01*
X232402800Y-115405600D02*
X231620800Y-115573900D01*
X234129800Y-186757800D02*
X233920800Y-185779400D01*
X166799800Y-162187500D02*
X167583800Y-162354300D01*
X324963800Y-126797900D02*
X324963800Y-127720000D01*
X214460800Y-177187400D02*
X211231800Y-177873600D01*
X246742800Y-115528400D02*
X247523800Y-115362900D01*
X162220800Y-167142800D02*
X161437800Y-166977500D01*
X199709800Y-102880900D02*
X200354800Y-105912400D01*
X217731800Y-176951700D02*
X216950800Y-177118500D01*
X202986800Y-114450600D02*
X203194800Y-115430600D01*
X161448800Y-117906800D02*
X161241800Y-118886800D01*
X213632800Y-122565900D02*
X214413800Y-122399400D01*
X266581800Y-117240000D02*
X265376800Y-111568100D01*
X256392800Y-90832800D02*
X255611800Y-90997800D01*
X233048800Y-118438800D02*
X234254800Y-124112200D01*
X326275800Y-89149800D02*
X325474800Y-89149800D01*
X343524800Y-89619800D02*
X341800800Y-89619800D01*
X287734800Y-116145700D02*
X286935800Y-116145700D01*
X96723900Y-87243800D02*
X95923100Y-87243800D01*
X353789800Y-140018900D02*
X353789800Y-133749000D01*
X297700800Y-102148900D02*
X311700800Y-102148900D01*
X83388500Y-117099300D02*
X82587700Y-117099300D01*
X73422600Y-89149800D02*
X72623200Y-89149800D01*
X172668800Y-110938000D02*
X171885800Y-110771500D01*
X148810800Y-155194000D02*
X148165800Y-158226800D01*
X174714800Y-150323900D02*
X175920800Y-144650500D01*
X172440800Y-133533800D02*
X173222800Y-133700700D01*
X58775300Y-111299300D02*
X59576000Y-111299300D01*
X236096800Y-107414500D02*
X235453800Y-104381300D01*
X257792800Y-129485300D02*
X257009800Y-129651800D01*
X230167800Y-129172400D02*
X229958800Y-128193800D01*
X257584800Y-128506700D02*
X257792800Y-129485300D01*
X235105800Y-128122200D02*
X248799800Y-125211800D01*
X141825800Y-114758300D02*
X141180800Y-117791100D01*
D11*
X27670041Y-180872799D02*
G75*
G02*
X25670001Y-178872799I-41J1999999D01*
G01*
D10*
X110723200Y-87243800D02*
X110723200Y-86243800D01*
X248729800Y-121035200D02*
X247948800Y-121201700D01*
X135825800Y-97176800D02*
X136606800Y-97343800D01*
X361229800Y-158299900D02*
X362030800Y-158299900D01*
X346429800Y-146300100D02*
X346429800Y-149397900D01*
X104267000Y-139540900D02*
X117960700Y-142452400D01*
X146891800Y-168077200D02*
X160584800Y-170989000D01*
X213794800Y-167412900D02*
X213011800Y-167578300D01*
X274992800Y-146300100D02*
X274992800Y-149397900D01*
X79649800Y-160050000D02*
X79649800Y-159068900D01*
X73098700Y-154598500D02*
X74624100Y-154598500D01*
X126158800Y-153549700D02*
X126803800Y-150516900D01*
X236446800Y-165766200D02*
X237229800Y-165600800D01*
X202536800Y-144401100D02*
X203741800Y-150073100D01*
X148450800Y-108959300D02*
X149233800Y-109126200D01*
X117503200Y-181256700D02*
X118286000Y-181424800D01*
X345514800Y-139249900D02*
X346313800Y-139249900D01*
X218595800Y-169559900D02*
X218803800Y-170539700D01*
X223227800Y-150124200D02*
X236922800Y-147212400D01*
X256130800Y-142108100D02*
X255485800Y-139074900D01*
X197259800Y-160805300D02*
X197467800Y-161783500D01*
X341074800Y-89149800D02*
X340275800Y-89149800D01*
X221169800Y-140439100D02*
X222375800Y-146112400D01*
X361229800Y-145299600D02*
X347230800Y-145299600D01*
X58146900Y-140248900D02*
X72146600Y-140248900D01*
X142941800Y-166215400D02*
X143586800Y-163183700D01*
X258437800Y-132516700D02*
X259643800Y-138191500D01*
X144862800Y-153333400D02*
X131167800Y-150421600D01*
X95923100Y-99244100D02*
X96723900Y-99244100D01*
X308843800Y-145299600D02*
X294842800Y-145299600D01*
X168935800Y-104214800D02*
X169716800Y-104381300D01*
X324963800Y-140018900D02*
X324963800Y-141000000D01*
X309642800Y-158299900D02*
X309642800Y-155199300D01*
X160596800Y-121918200D02*
X159391800Y-127591600D01*
X51955400Y-178349100D02*
X65955000Y-178349100D01*
X77672500Y-89149800D02*
X76873100Y-89149800D01*
X309642800Y-155199300D02*
X308843800Y-155199300D01*
X139905800Y-127641300D02*
X153599800Y-130551800D01*
X99140800Y-139249900D02*
X99140800Y-136149300D01*
X137251800Y-94310800D02*
X136468800Y-94143800D01*
X117973100Y-93381800D02*
X116768700Y-99056800D01*
X213863800Y-171589800D02*
X213655800Y-170610000D01*
X65955000Y-165348600D02*
X65955000Y-164348200D01*
X340275800Y-88149800D02*
X326275800Y-88149800D01*
X122326400Y-142357500D02*
X123109200Y-142524300D01*
X98340300Y-139249900D02*
X99140800Y-139249900D01*
X135221800Y-183569000D02*
X135894800Y-180410600D01*
X215620800Y-128074200D02*
X214837800Y-128239300D01*
X137459800Y-93333800D02*
X137251800Y-94310800D01*
X151727800Y-97387800D02*
X150946800Y-97222800D01*
X153013800Y-174541500D02*
X139318800Y-171629700D01*
X326275800Y-102148900D02*
X340275800Y-102148900D01*
X91673200Y-88149800D02*
X77672500Y-88149800D01*
X217594800Y-180150100D02*
X218376800Y-179984800D01*
D11*
X363752541Y-85717799D02*
X363752541Y-178872799D01*
D10*
X152571800Y-183954900D02*
X151898800Y-187114700D01*
X125375800Y-153381800D02*
X126158800Y-153549700D01*
X340275800Y-97449800D02*
X341800800Y-97449800D01*
X58146900Y-136149300D02*
X57346300Y-136149300D01*
X90055300Y-149397900D02*
X90055300Y-155199300D01*
X274119800Y-135114600D02*
X273336800Y-135279700D01*
X300557800Y-127250100D02*
X299758800Y-127250100D01*
X272934800Y-107246600D02*
X272135800Y-107246600D01*
X324750800Y-97449800D02*
X326275800Y-97449800D01*
X133534800Y-183210800D02*
X135221800Y-183569000D01*
X156439800Y-121035200D02*
X157084800Y-118002000D01*
X168512800Y-110055000D02*
X167729800Y-109888200D01*
X229958800Y-128193800D02*
X230740800Y-128028700D01*
X220975800Y-107460000D02*
X220194800Y-107625400D01*
X254435800Y-158774000D02*
X255080800Y-161805800D01*
X118146700Y-178225000D02*
X119353900Y-172553000D01*
X343524800Y-101918900D02*
X343524800Y-102900000D01*
X107178800Y-125845700D02*
X106970700Y-126825700D01*
X218918800Y-97774800D02*
X219126800Y-98753400D01*
X124182800Y-109985900D02*
X123974800Y-110964500D01*
X150954800Y-184225000D02*
X151080800Y-183638000D01*
X314558800Y-139249900D02*
X315357800Y-139249900D01*
X335035800Y-146300100D02*
X335035800Y-145299600D01*
X57823100Y-98048800D02*
X57823100Y-101149900D01*
X202204800Y-114618900D02*
X202986800Y-114450600D01*
X348847800Y-117099300D02*
X348847800Y-111299300D01*
X254730800Y-103454200D02*
X254085800Y-100421000D01*
X98340300Y-130347900D02*
X99140800Y-130347900D01*
X120136700Y-172718400D02*
X120780200Y-169686700D01*
X361229800Y-159298900D02*
X361229800Y-158299900D01*
X131667800Y-96293800D02*
X132450800Y-96458800D01*
X349648800Y-111299300D02*
X349648800Y-108200100D01*
X345514800Y-130347900D02*
X346313800Y-130347900D01*
X104055000Y-155199300D02*
X104055000Y-149397900D01*
X214439800Y-170444600D02*
X213794800Y-167412900D01*
X212106800Y-131987600D02*
X211463800Y-128956200D01*
X138327800Y-172442800D02*
X137684800Y-175474500D01*
X136296800Y-170221400D02*
X133067800Y-169535100D01*
X255611800Y-90997800D02*
X256254800Y-94030800D01*
X239021800Y-136645600D02*
X239803800Y-136478800D01*
X133343800Y-184112000D02*
X133534800Y-183210800D01*
X325474800Y-92248800D02*
X326275800Y-92248800D01*
X346825800Y-88698800D02*
X343524800Y-88698800D01*
X241654800Y-145183900D02*
X241862800Y-146162200D01*
X185510800Y-117860200D02*
X185718800Y-116881600D01*
X77672500Y-98048800D02*
X76873100Y-98048800D01*
X328264800Y-140018900D02*
X329989800Y-140018900D01*
X84340700Y-126249600D02*
X84340700Y-127250100D01*
X66755400Y-177348600D02*
X66755400Y-174249400D01*
X227463800Y-116455800D02*
X227255800Y-115479000D01*
X294043800Y-158299900D02*
X294842800Y-158299900D01*
X158069800Y-140856800D02*
X158714800Y-137825000D01*
X292650800Y-90344800D02*
X293449800Y-90344800D01*
X112325800Y-147439600D02*
X111543000Y-147273100D01*
X127682800Y-162972700D02*
X128465800Y-163138200D01*
X65955000Y-178349100D02*
X65955000Y-177348600D01*
X338657800Y-164348200D02*
X338657800Y-165348600D01*
X239158800Y-133447000D02*
X238377800Y-133612500D01*
X326275800Y-88149800D02*
X326275800Y-89149800D01*
X232428800Y-163451100D02*
X231644800Y-163617800D01*
X153807800Y-129573500D02*
X154588800Y-129740000D01*
X280708800Y-127250100D02*
X280708800Y-130347900D01*
X295508800Y-140248900D02*
X295508800Y-139249900D01*
X252098800Y-94914800D02*
X252881800Y-94747800D01*
X299758800Y-127250100D02*
X299758800Y-130347900D01*
X51955400Y-168447900D02*
X51955400Y-174249400D01*
X137779800Y-171538800D02*
X136092800Y-171179100D01*
X57346300Y-136149300D02*
X57346300Y-139249900D01*
X293449800Y-87243800D02*
X292650800Y-87243800D01*
X199318800Y-170488700D02*
X198535800Y-170655500D01*
X219582800Y-185656800D02*
X218799800Y-185823500D01*
X217950800Y-166528300D02*
X217169800Y-166695000D01*
X83388500Y-120199800D02*
X83388500Y-121198900D01*
X104055000Y-146300100D02*
X104055000Y-145299600D01*
X289793800Y-158299900D02*
X290592800Y-158299900D01*
X340275800Y-92248800D02*
X341074800Y-92248800D01*
X174935800Y-121795800D02*
X175143800Y-120818600D01*
X119171800Y-113112500D02*
X119817100Y-110081100D01*
X211231800Y-177873600D02*
X211422800Y-178773500D01*
X200492800Y-102714100D02*
X199709800Y-102880900D01*
X227255800Y-115479000D02*
X213561800Y-118389400D01*
X73899200Y-149397900D02*
X73899200Y-146300100D01*
X299758800Y-130347900D02*
X300557800Y-130347900D01*
X153389800Y-110009500D02*
X153183800Y-110987800D01*
X152035800Y-179138700D02*
X152160800Y-178551600D01*
X308843800Y-159298900D02*
X308843800Y-158299900D01*
X237463800Y-186815700D02*
X240692800Y-186128100D01*
X335035800Y-155199300D02*
X335035800Y-149397900D01*
X109831700Y-159177900D02*
X109623600Y-160154800D01*
X235573800Y-186214900D02*
X237261800Y-185856600D01*
X325474800Y-89149800D02*
X325474800Y-92248800D01*
X247948800Y-121201700D02*
X246742800Y-115528400D01*
X250898800Y-114643600D02*
X251682800Y-114478500D01*
X150946800Y-97222800D02*
X151154800Y-96242800D01*
X214837800Y-128239300D02*
X215481800Y-131271100D01*
X348847800Y-120199800D02*
X349648800Y-120199800D01*
X89254900Y-158299900D02*
X90055300Y-158299900D01*
X139110800Y-172608100D02*
X138327800Y-172442800D01*
X77672500Y-92248800D02*
X77672500Y-98048800D01*
X51154800Y-177348600D02*
X51955400Y-177348600D01*
X173222800Y-133700700D02*
X173867800Y-130668900D01*
X148242800Y-109937500D02*
X148450800Y-108959300D01*
X331513800Y-127250100D02*
X330714800Y-127250100D01*
X217208800Y-190118890D02*
X218896800Y-189760580D01*
X196684800Y-161950400D02*
X197328800Y-164982100D01*
X141534800Y-147463200D02*
X155227800Y-150373600D01*
X274498800Y-178127200D02*
X273853800Y-175095500D01*
X309642800Y-149397900D02*
X309642800Y-146300100D01*
X272647800Y-169422100D02*
X272004800Y-166390400D01*
X209601800Y-182463900D02*
X210182800Y-185202100D01*
X168607800Y-178878200D02*
X167963800Y-181909900D01*
X115985900Y-98890000D02*
X115341000Y-101921700D01*
X348550800Y-95648800D02*
X349374800Y-95648800D01*
X82587700Y-117099300D02*
X82587700Y-120199800D01*
X128327800Y-159939900D02*
X127682800Y-162972700D01*
X242175800Y-184812100D02*
X240871800Y-178678400D01*
X310235800Y-120199800D02*
X311034800Y-120199800D01*
X74374700Y-108200100D02*
X73575300Y-108200100D01*
X239471800Y-106696600D02*
X240254800Y-106529700D01*
X216888800Y-112518800D02*
X216681800Y-111541600D01*
X133095800Y-93427800D02*
X132312800Y-93261800D01*
X278650800Y-90344800D02*
X278650800Y-96144800D01*
X137385800Y-180727600D02*
X137259800Y-181314600D01*
X234735800Y-153862600D02*
X233952800Y-154028100D01*
X232195800Y-114428800D02*
X232402800Y-115405600D01*
X131167800Y-150421600D02*
X130959800Y-151400200D01*
X341800800Y-92849800D02*
X340275800Y-92849800D01*
X321036800Y-155199300D02*
X320235800Y-155199300D01*
X65955000Y-164348200D02*
X51955400Y-164348200D01*
X179218800Y-174948000D02*
X179426800Y-173971000D01*
X82199300Y-150000000D02*
X81373800Y-150000000D01*
X154456800Y-175083100D02*
X153527800Y-179455600D01*
X126803800Y-150516900D02*
X126020800Y-150350000D01*
X137585800Y-145601300D02*
X138230800Y-142569500D01*
X74624100Y-159068900D02*
X76349600Y-159068900D01*
X92472600Y-92248800D02*
X92472600Y-89149800D01*
X256071800Y-162617500D02*
X269764800Y-159707100D01*
X213561800Y-118389400D02*
X213769800Y-119367600D01*
X251062800Y-159490500D02*
X250279800Y-159657300D01*
X57346300Y-130347900D02*
X58146900Y-130347900D01*
X231644800Y-163617800D02*
X230440800Y-157944600D01*
X139297800Y-133697800D02*
X139506800Y-132719600D01*
X57823100Y-89149800D02*
X57823100Y-92248800D01*
X76873100Y-101149900D02*
X77672500Y-101149900D01*
X353789800Y-127720000D02*
X352064800Y-127720000D01*
X197631800Y-135066300D02*
X197838800Y-136044500D01*
X349648800Y-117099300D02*
X348847800Y-117099300D01*
X241009800Y-142150700D02*
X240226800Y-142319000D01*
X341800800Y-101918900D02*
X343524800Y-101918900D01*
X91673200Y-92248800D02*
X92472600Y-92248800D01*
X294043800Y-149397900D02*
X294842800Y-149397900D01*
X81373800Y-150000000D02*
X81373800Y-146770000D01*
X238403800Y-97824800D02*
X239609800Y-103498300D01*
X97387800Y-121198900D02*
X97387800Y-120199800D01*
X295508800Y-126249600D02*
X281507800Y-126249600D01*
X362030800Y-146300100D02*
X361229800Y-146300100D01*
X275792800Y-149397900D02*
X275792800Y-155199300D01*
X352064800Y-140018900D02*
X353789800Y-140018900D01*
X123753800Y-139492600D02*
X122971300Y-139325700D01*
X123330700Y-113995900D02*
X122123900Y-119670700D01*
X234218800Y-134495800D02*
X234011800Y-133518600D01*
X166758800Y-187584700D02*
X166113800Y-190616340D01*
X140112800Y-126663100D02*
X139905800Y-127641300D01*
X311034800Y-108200100D02*
X310235800Y-108200100D01*
X117191700Y-93216800D02*
X117973100Y-93381800D01*
X234703800Y-173825000D02*
X233015800Y-174183200D01*
X347230800Y-149397900D02*
X347230800Y-155199300D01*
X341074800Y-92248800D02*
X341074800Y-89149800D01*
X106512100Y-165631100D02*
X106303900Y-166609500D01*
X105659000Y-169641200D02*
X104453200Y-175314600D01*
X322414800Y-133749000D02*
X323238800Y-133749000D01*
X229795800Y-154912800D02*
X229587800Y-153934200D01*
X335836800Y-149397900D02*
X335836800Y-146300100D01*
X278650800Y-87243800D02*
X277849800Y-87243800D01*
X266854800Y-146011900D02*
X253159800Y-148923700D01*
X331513800Y-140248900D02*
X345514800Y-140248900D01*
X215586800Y-138457500D02*
X215377800Y-137477800D01*
X234512800Y-172925100D02*
X234703800Y-173825000D01*
X73899200Y-155199300D02*
X73098700Y-155199300D01*
X330714800Y-136149300D02*
X330714800Y-139249900D01*
X139506800Y-132719600D02*
X125811800Y-129809200D01*
X311700800Y-92248800D02*
X312499800Y-92248800D01*
X237497800Y-146067300D02*
X236851800Y-143035500D01*
X331513800Y-136149300D02*
X330714800Y-136149300D01*
X251132800Y-163667400D02*
X250924800Y-162689100D01*
X270870800Y-87753800D02*
X270087800Y-87920800D01*
X141963800Y-117957900D02*
X140757800Y-123629900D01*
X57346300Y-139249900D02*
X58146900Y-139249900D01*
X293449800Y-96144800D02*
X292650800Y-96144800D01*
X137259800Y-181314600D02*
X136478800Y-181147900D01*
X197838800Y-136044500D02*
X211533800Y-133132700D01*
X250829800Y-110466700D02*
X251037800Y-111446700D01*
X323024800Y-89619800D02*
X323024800Y-88698800D01*
X149801800Y-154383700D02*
X149593800Y-155361900D01*
X171242800Y-113804300D02*
X172023800Y-113969800D01*
X278650800Y-100244600D02*
X292650800Y-100244600D01*
D11*
X361752541Y-83717799D02*
G75*
G02*
X363752601Y-85717799I-41J-2000101D01*
G01*
D10*
X289793800Y-146300100D02*
X289793800Y-145299600D01*
X92472600Y-89149800D02*
X91673200Y-89149800D01*
X229314800Y-125162400D02*
X228108800Y-119489000D01*
X352658800Y-174249400D02*
X352658800Y-168447900D01*
X118390800Y-112946000D02*
X119171800Y-113112500D01*
X79649800Y-159068900D02*
X81373800Y-159068900D01*
X99140800Y-136149300D02*
X98340300Y-136149300D01*
X97387800Y-107199600D02*
X83388500Y-107199600D01*
X247523800Y-115362900D02*
X246879800Y-112330100D01*
X173084800Y-130502000D02*
X174290800Y-124828600D01*
X91673200Y-89149800D02*
X91673200Y-88149800D01*
X138652800Y-136729600D02*
X139435800Y-136895100D01*
X74624100Y-154598500D02*
X74624100Y-159068900D01*
X211943800Y-158706600D02*
X211161800Y-158873100D01*
X96723900Y-99244100D02*
X96723900Y-100244600D01*
X167963800Y-181909900D02*
X168746800Y-182078000D01*
X139974800Y-123464500D02*
X139329800Y-126496200D01*
X353789800Y-130950000D02*
X353789800Y-127720000D01*
X311700800Y-101149900D02*
X312499800Y-101149900D01*
X249072800Y-153984000D02*
X249856800Y-153817100D01*
X246879800Y-112330100D02*
X246097800Y-112496600D01*
X126228800Y-149373200D02*
X112534000Y-146461300D01*
X361229800Y-155199300D02*
X361229800Y-149397900D01*
X151154800Y-96242800D02*
X137459800Y-93333800D01*
X165731800Y-171059200D02*
X165523800Y-172037600D01*
X314558800Y-140248900D02*
X314558800Y-139249900D01*
X213978800Y-98825100D02*
X200284800Y-101736900D01*
X253497800Y-133567000D02*
X254280800Y-133401500D01*
X334047800Y-120199800D02*
X334848800Y-120199800D01*
X119998700Y-169520000D02*
X120206900Y-168541600D01*
X272790800Y-100637300D02*
X272581800Y-99659000D01*
X300557800Y-136149300D02*
X299758800Y-136149300D01*
X277849800Y-90344800D02*
X278650800Y-90344800D01*
X237931800Y-173140000D02*
X237739800Y-172238800D01*
X338657800Y-178349100D02*
X352658800Y-178349100D01*
X120019600Y-132769000D02*
X120802000Y-132935800D01*
X346313800Y-127250100D02*
X345514800Y-127250100D01*
X105543300Y-129692000D02*
X106325800Y-129858600D01*
X255485800Y-139074900D02*
X254704800Y-139241700D01*
X269879800Y-86943800D02*
X256184800Y-89852800D01*
X335035800Y-145299600D02*
X321036800Y-145299600D01*
X323238800Y-140018900D02*
X324963800Y-140018900D01*
X311034800Y-121198900D02*
X325035800Y-121198900D01*
X136606800Y-97343800D02*
X135400800Y-103015700D01*
X258171800Y-172499300D02*
X259377800Y-178172700D01*
X167583800Y-162354300D02*
X166376800Y-168027600D01*
X91673200Y-98048800D02*
X91673200Y-92248800D01*
X335836800Y-146300100D02*
X335035800Y-146300100D01*
X166687800Y-191760120D02*
X180381800Y-194671910D01*
X83539900Y-139249900D02*
X84340700Y-139249900D01*
X52549300Y-146770000D02*
X50822700Y-146770000D01*
X220316800Y-136429000D02*
X220524800Y-137407600D01*
X275792800Y-146300100D02*
X274992800Y-146300100D01*
X136599800Y-122748000D02*
X135818800Y-122579700D01*
X252105800Y-120317000D02*
X252749800Y-123350200D01*
X204594800Y-154083100D02*
X218288800Y-151172700D01*
X312499800Y-92248800D02*
X312499800Y-89149800D01*
X95923100Y-87243800D02*
X95923100Y-90344800D01*
X320235800Y-158299900D02*
X321036800Y-158299900D01*
X148165800Y-158226800D02*
X148948800Y-158393700D01*
X55849700Y-145847900D02*
X52549300Y-145847900D01*
X77672500Y-101149900D02*
X77672500Y-102148900D01*
X73098700Y-149397900D02*
X73899200Y-149397900D01*
X216338800Y-177728900D02*
X214650800Y-178087200D01*
X99140800Y-127250100D02*
X98340300Y-127250100D01*
X286935800Y-120246800D02*
X286935800Y-119246300D01*
X305985800Y-111299300D02*
X306784800Y-111299300D01*
X270087800Y-87920800D02*
X269879800Y-86943800D01*
X234116800Y-127310800D02*
X234897800Y-127143900D01*
X228891800Y-119322100D02*
X228246800Y-116290400D01*
X138230800Y-142569500D02*
X137447800Y-142403000D01*
X168435800Y-158344000D02*
X168227800Y-159322600D01*
X299758800Y-139249900D02*
X300557800Y-139249900D01*
X286935800Y-107246600D02*
X286935800Y-106246100D01*
X220524800Y-137407600D02*
X219743800Y-137572700D01*
X141180800Y-117791100D02*
X141963800Y-117957900D01*
X154034800Y-106977700D02*
X153251800Y-106810900D01*
X65955000Y-168447900D02*
X66755400Y-168447900D01*
X237552800Y-93814800D02*
X237758800Y-94792800D01*
X151080800Y-183638000D02*
X152571800Y-183954900D01*
X124169800Y-159056600D02*
X125375800Y-153381800D01*
X237437800Y-166577900D02*
X251132800Y-163667400D01*
X144009800Y-157343500D02*
X144792800Y-157508900D01*
X105118600Y-135531900D02*
X104337500Y-135365400D01*
X201753800Y-144566600D02*
X202536800Y-144401100D01*
X296307800Y-130347900D02*
X296307800Y-127250100D01*
X286935800Y-106246100D02*
X272934800Y-106246100D01*
X103489800Y-115709000D02*
X102707300Y-115543500D01*
X172023800Y-113969800D02*
X171815800Y-114948400D01*
X136595800Y-146413000D02*
X136803800Y-145435800D01*
X349648800Y-108200100D02*
X348847800Y-108200100D01*
X287734800Y-110347100D02*
X287734800Y-107246600D01*
X104055000Y-158299900D02*
X104855400Y-158299900D01*
X128619800Y-182166200D02*
X130307800Y-182525900D01*
X84340700Y-127250100D02*
X83539900Y-127250100D01*
X169391800Y-179045000D02*
X168607800Y-178878200D01*
X141950800Y-167027100D02*
X142158800Y-166050100D01*
X233952800Y-154028100D02*
X234597800Y-157061200D01*
X173736800Y-102066400D02*
X173091800Y-105098100D01*
X173875800Y-105264700D02*
X172668800Y-110938000D01*
X210257800Y-123284200D02*
X209612800Y-120251000D01*
X155102800Y-98105800D02*
X154457800Y-101137500D01*
X235523800Y-108558200D02*
X235315800Y-107579900D01*
X153586800Y-175685300D02*
X152805800Y-175519900D01*
X220227800Y-188689860D02*
X220435800Y-189666880D01*
X253947800Y-103619300D02*
X254730800Y-103454200D01*
X201137800Y-105745800D02*
X202341800Y-111419200D01*
X253304800Y-100587900D02*
X252098800Y-94914800D01*
X238950800Y-132468800D02*
X239158800Y-133447000D01*
X353789800Y-133749000D02*
X354613800Y-133749000D01*
X320235800Y-155199300D02*
X320235800Y-158299900D01*
X76349600Y-146770000D02*
X74624100Y-146770000D01*
X57573700Y-159068900D02*
X57573700Y-154598500D01*
X233602800Y-95676800D02*
X232819800Y-95841800D01*
X169716800Y-104381300D02*
X170361800Y-101349900D01*
X214831800Y-102835400D02*
X215613800Y-102670000D01*
X233463800Y-98874800D02*
X234247800Y-98707900D01*
X297700800Y-92248800D02*
X297700800Y-98048800D01*
D11*
X189085477Y-199914422D02*
X278464428Y-180916503D01*
D10*
X136803800Y-145435800D02*
X137585800Y-145601300D01*
X98188600Y-111299300D02*
X98188600Y-108200100D01*
X348550800Y-92849800D02*
X348550800Y-89619800D01*
X196985800Y-132033100D02*
X196204800Y-132199900D01*
X216744800Y-160855000D02*
X217950800Y-166528300D01*
X103671800Y-175147900D02*
X103027000Y-178180900D01*
X290592800Y-155199300D02*
X289793800Y-155199300D01*
X131177800Y-170135900D02*
X129873800Y-176268200D01*
X129873800Y-176268200D02*
X129065800Y-176096000D01*
X273364800Y-99492200D02*
X272719800Y-96460800D01*
X234670800Y-104548200D02*
X233463800Y-98874800D01*
X323024800Y-101918900D02*
X324750800Y-101918900D01*
X329989800Y-135549900D02*
X331513800Y-135549900D01*
X214650800Y-178087200D02*
X214460800Y-177187400D01*
X250254800Y-111612200D02*
X250898800Y-114643600D01*
X214968800Y-99636800D02*
X214185800Y-99803700D01*
X297700800Y-101149900D02*
X297700800Y-102148900D01*
X294043800Y-146300100D02*
X294043800Y-149397900D01*
X188995800Y-105308800D02*
X188212800Y-105143600D01*
X194353800Y-123494800D02*
X194998800Y-126526600D01*
X72146600Y-139249900D02*
X72945600Y-139249900D01*
X182128800Y-161254400D02*
X168435800Y-158344000D01*
X335836800Y-155199300D02*
X335035800Y-155199300D01*
X221593800Y-146279300D02*
X222238800Y-149311100D01*
X249211800Y-150785700D02*
X248428800Y-150950800D01*
X157286800Y-140689900D02*
X158069800Y-140856800D01*
X167867800Y-113086400D02*
X168512800Y-110055000D01*
X120802000Y-132935800D02*
X121445800Y-129902700D01*
X320235800Y-146300100D02*
X320235800Y-149397900D01*
X281507800Y-126249600D02*
X281507800Y-127250100D01*
X256254800Y-94030800D02*
X257037800Y-93863800D01*
X160584800Y-170989000D02*
X160792800Y-170009100D01*
X233072800Y-166482800D02*
X232428800Y-163451100D01*
X255218800Y-158607100D02*
X254435800Y-158774000D01*
X148948800Y-158393700D02*
X147742800Y-164067100D01*
X232819800Y-95841800D02*
X232611800Y-94864800D01*
X118826100Y-89371800D02*
X118618000Y-90349800D01*
X221828800Y-111468600D02*
X235523800Y-108558200D01*
X177348800Y-141785600D02*
X176565800Y-141618800D01*
X149878800Y-106093000D02*
X149094800Y-105927500D01*
X280708800Y-139249900D02*
X281507800Y-139249900D01*
X142607800Y-114924800D02*
X141825800Y-114758300D01*
X180381800Y-194671910D02*
X180589800Y-193693520D01*
X130959800Y-151400200D02*
X130176800Y-151234800D01*
X209474800Y-123449300D02*
X210257800Y-123284200D01*
X348763800Y-141000000D02*
X352064800Y-141000000D01*
X156301800Y-117836600D02*
X156509800Y-116856900D01*
X58775300Y-108200100D02*
X58775300Y-111299300D01*
X235646800Y-137362100D02*
X235002800Y-134330400D01*
X222375800Y-146112400D02*
X221593800Y-146279300D01*
D11*
X98875656Y-180916504D02*
X188253834Y-199914421D01*
D10*
X352658800Y-164348200D02*
X338657800Y-164348200D01*
X162870800Y-138706900D02*
X162088800Y-138541800D01*
X253636800Y-130369700D02*
X252852800Y-130535200D01*
X84340700Y-130347900D02*
X84340700Y-136149300D01*
X252749800Y-123350200D02*
X253531800Y-123183300D01*
X58299900Y-155199300D02*
X58299900Y-158299900D01*
X230577800Y-154746000D02*
X229795800Y-154912800D01*
X203741800Y-150073100D02*
X202960800Y-150239900D01*
X66755400Y-168447900D02*
X66755400Y-165348600D01*
X289793800Y-159298900D02*
X289793800Y-158299900D01*
X155227800Y-150373600D02*
X155436800Y-149395000D01*
X72945600Y-130347900D02*
X72945600Y-127250100D01*
X102063500Y-118575300D02*
X102844900Y-118742200D01*
X237758800Y-94792800D02*
X236977800Y-94959800D01*
X130461800Y-101965800D02*
X131667800Y-96293800D01*
X235315800Y-107579900D02*
X236096800Y-107414500D01*
X152608800Y-109844100D02*
X153389800Y-110009500D01*
X50000000Y-150000000D02*
X50000000Y-152799000D01*
X319724800Y-89619800D02*
X318000800Y-89619800D01*
X130307800Y-182525900D02*
X130114800Y-183424400D01*
X331513800Y-126249600D02*
X331513800Y-127250100D01*
X158138800Y-136679900D02*
X144444800Y-133769500D01*
X334848800Y-117099300D02*
X334047800Y-117099300D01*
X125811800Y-129809200D02*
X125604800Y-130786000D01*
X172233800Y-134512400D02*
X172440800Y-133533800D01*
D11*
X25670041Y-178872799D02*
X25670041Y-85717799D01*
D10*
X308843800Y-149397900D02*
X309642800Y-149397900D01*
X119817100Y-110081100D02*
X119034300Y-109914300D01*
X318000800Y-89619800D02*
X318000800Y-92849800D01*
X158747800Y-130623400D02*
X158539800Y-131602000D01*
X252852800Y-130535200D02*
X252644800Y-129556900D01*
X347038800Y-130950000D02*
X345514800Y-130950000D01*
X142816800Y-113947900D02*
X142607800Y-114924800D01*
X219444800Y-188856580D02*
X220227800Y-188689860D01*
X311700800Y-98048800D02*
X311700800Y-92248800D01*
X73575300Y-120199800D02*
X74374700Y-120199800D01*
X235803800Y-162734600D02*
X236446800Y-165766200D01*
X175143800Y-120818600D02*
X161448800Y-117906800D01*
X211463800Y-128956200D02*
X210680800Y-129122700D01*
D11*
X278880248Y-180872799D02*
X361752541Y-180872799D01*
D10*
X361229800Y-146300100D02*
X361229800Y-145299600D01*
X345514800Y-135549900D02*
X347038800Y-135549900D01*
X97387800Y-117099300D02*
X97387800Y-111299300D01*
X121270900Y-123681100D02*
X134965800Y-126590100D01*
X273981800Y-138312900D02*
X274764800Y-138146000D01*
X183293800Y-180977000D02*
X169599800Y-178066600D01*
X260230800Y-182182800D02*
X273923800Y-179272400D01*
X72623200Y-89149800D02*
X72623200Y-88149800D01*
X59576000Y-117099300D02*
X58775300Y-117099300D01*
X212292800Y-191163430D02*
X213980800Y-190803770D01*
X341074800Y-98048800D02*
X340275800Y-98048800D01*
X317175800Y-95648800D02*
X318000800Y-95648800D01*
X272934800Y-119246300D02*
X272934800Y-120246800D01*
X160562800Y-182791800D02*
X159756800Y-182619600D01*
X130314800Y-154431600D02*
X129108800Y-160106400D01*
X255556800Y-143251800D02*
X255347800Y-142273500D01*
X124959800Y-133817800D02*
X123753800Y-139492600D01*
X325035800Y-108200100D02*
X325035800Y-107199600D01*
X361229800Y-149397900D02*
X362030800Y-149397900D01*
X228246800Y-116290400D02*
X227463800Y-116455800D01*
X111543000Y-147273100D02*
X110899600Y-150305900D01*
X220435800Y-189666880D02*
X234129800Y-186757800D01*
X292650800Y-99244100D02*
X293449800Y-99244100D01*
X157084800Y-118002000D02*
X156301800Y-117836600D01*
X96723900Y-96144800D02*
X95923100Y-96144800D01*
X50000000Y-152799000D02*
X50822700Y-152799000D01*
X274992800Y-158299900D02*
X275792800Y-158299900D01*
X347230800Y-158299900D02*
X347230800Y-159298900D01*
X199180800Y-173688500D02*
X199961800Y-173521800D01*
X52549300Y-159068900D02*
X52549300Y-160050000D01*
X117967500Y-118786300D02*
X117185000Y-118620800D01*
X90055300Y-155199300D02*
X89254900Y-155199300D01*
X117322600Y-121817700D02*
X117967500Y-118786300D01*
X73098700Y-146300100D02*
X73098700Y-145299600D01*
X294842800Y-159298900D02*
X308843800Y-159298900D01*
X256184800Y-89852800D02*
X256392800Y-90832800D01*
X216036800Y-108508800D02*
X214831800Y-102835400D01*
X236584800Y-162567800D02*
X235803800Y-162734600D01*
X330714800Y-130347900D02*
X331513800Y-130347900D01*
X72146600Y-140248900D02*
X72146600Y-139249900D01*
X329989800Y-140018900D02*
X329989800Y-135549900D01*
X218376800Y-179984800D02*
X218502800Y-180571800D01*
X334047800Y-111299300D02*
X334848800Y-111299300D01*
X270339800Y-158562000D02*
X269694800Y-155530200D01*
X137684800Y-175474500D02*
X138465800Y-175641200D01*
X175074800Y-124995500D02*
X175717800Y-121963700D01*
M02*
